<?xml version="1.0" encoding="UTF-8"?>
<svg id="Layer_1" data-name="Layer 1" xmlns="http://www.w3.org/2000/svg" viewBox="0 0 344.1 319.36">
  <defs>
    <style>
      .cls-1 {
        stroke: #fff;
        stroke-width: .69px;
      }

      .cls-1, .cls-2 {
        stroke-linejoin: round;
      }

      .cls-1, .cls-2, .cls-3 {
        fill: none;
      }

      .cls-2 {
        stroke: gray;
        stroke-width: .1px;
      }

      .cls-2, .cls-4 {
        opacity: .5;
      }

      .cls-5, .cls-6, .cls-7 {
        fill: #fff;
      }

      .cls-8 {
        fill: #f49a7b;
      }

      .cls-9 {
        fill: #afcafc;
      }

      .cls-6 {
        font-size: 6.98px;
      }

      .cls-6, .cls-7, .cls-10 {
        font-family: CMUSerif-Roman, 'CMU Serif';
      }

      .cls-11 {
        fill: #3b4cc0;
      }

      .cls-12 {
        fill: #eaeaf2;
      }

      .cls-13 {
        fill: #e36c55;
      }

      .cls-7 {
        font-size: 9.98px;
      }

      .cls-14 {
        fill: #8caffd;
      }

      .cls-10 {
        font-size: 24px;
      }

      .cls-15 {
        fill: #4961d2;
      }

      .cls-16 {
        fill: #e9d5cb;
      }

      .cls-4 {
        fill: #7f7f7f;
      }

      .cls-17 {
        fill: #6a8bef;
      }

      .cls-18 {
        letter-spacing: .03em;
      }

      .cls-19 {
        fill: #b40426;
      }

      .cls-20 {
        fill: #f6bda2;
      }

      .cls-21 {
        fill: #c53334;
      }

      .cls-22 {
        fill: #d0daea;
      }
    </style>
  </defs>
  <g id="PLOT:basins-uni">
    <g>
      <rect class="cls-5" x="24.62" y="9.43" width="300.41" height="300.41"/>
      <rect class="cls-12" x="54.66" y="42.48" width="232.82" height="231.32"/>
      <rect class="cls-3" x="24.62" y="9.43" width="300.41" height="300.41"/>
    </g>
    <g id="PLOT:basins-uni-2" data-name="PLOT:basins-uni">
      <polygon class="cls-19" points="277.29 47.2 272.57 47.2 267.85 47.2 263.13 47.2 258.4 47.2 253.68 47.2 248.96 47.2 244.24 47.2 239.52 47.2 234.8 47.2 230.08 47.2 225.36 47.2 220.64 47.2 215.92 47.2 211.2 47.2 206.48 47.2 201.76 47.2 197.04 47.2 192.31 47.2 187.59 47.2 182.87 47.2 178.15 47.2 173.43 47.2 168.71 47.2 163.99 47.2 159.27 47.2 154.55 47.2 149.83 47.2 145.11 47.2 140.39 47.2 135.67 47.2 130.94 47.2 126.22 47.2 121.5 47.2 116.78 47.2 112.06 47.2 107.34 47.2 102.62 47.2 97.9 47.2 93.18 47.2 88.46 47.2 83.74 47.2 79.02 47.2 77.23 47.2 74.3 48.66 69.57 50.16 64.85 51.04 63.86 51.92 62.37 56.64 62.75 61.36 63.18 66.08 63.48 70.8 63.82 75.52 64.85 77.08 69.57 78.49 74.3 78.65 79.02 76.07 83.74 78.12 88.46 78.48 93.18 78.84 94.35 80.24 95.94 84.97 97.9 86.7 101.47 89.69 102.62 90.37 107.34 91.44 112.06 92.33 116.78 92.63 121.12 94.41 121.5 94.52 122.07 94.41 126.22 92.41 130.94 93.59 131.9 94.41 135.67 95.42 140.39 96.25 145.11 97.22 149.83 97.81 153.65 99.13 154.55 99.4 159.27 100.7 163.99 102.04 168.71 103.08 170.82 103.85 173.43 104.99 178.15 107.03 182.27 108.57 182.87 108.77 187.59 110.96 191.3 113.29 192.31 113.73 197.04 115.08 201.76 116.93 203.33 118.01 206.48 120.67 209.15 122.73 211.2 124.04 215.92 127.05 216.62 127.45 220.64 129.67 225.26 132.17 225.36 132.22 229.82 136.89 230.08 137.34 232.3 141.61 234.8 143.48 237.42 146.33 239.52 149.81 241.01 151.06 244.24 155.17 244.76 155.78 248.77 160.5 248.96 160.69 253.58 165.22 253.68 165.37 256.13 169.94 258.4 171.89 261.17 174.66 263.13 176.79 265.26 179.38 267.85 182.64 269.53 184.1 272.57 188.69 272.75 188.82 277.16 193.54 277.29 193.67 282.01 194.32 282.01 193.54 282.01 188.82 282.01 184.1 282.01 179.38 282.01 174.66 282.01 169.94 282.01 165.22 282.01 160.5 282.01 155.78 282.01 151.06 282.01 146.33 282.01 141.61 282.01 136.89 282.01 132.17 282.01 127.45 282.01 122.73 282.01 118.01 282.01 113.29 282.01 108.57 282.01 103.85 282.01 99.13 282.01 94.41 282.01 89.69 282.01 84.97 282.01 80.24 282.01 75.52 282.01 70.8 282.01 66.08 282.01 61.36 282.01 56.64 282.01 51.92 277.29 47.2"/>
      <polygon class="cls-19" points="64.85 132.16 64.79 132.17 60.13 134 60.13 136.89 60.13 141.61 60.13 146.33 60.13 151.06 60.13 155.78 60.13 160.5 60.13 165.22 60.13 169.94 60.13 174.66 60.13 179.38 60.13 183.05 64.85 183.77 69.57 182.18 74.3 180.39 75.88 179.38 79.02 175.38 79.55 174.66 80.64 169.94 80.54 165.22 80.71 160.5 81.17 155.78 79.65 151.06 79.02 149.58 77.59 146.33 75.97 141.61 74.66 136.89 74.3 136.06 69.57 134.78 64.88 132.17 64.85 132.16"/>
      <polygon class="cls-19" points="234.8 226.07 233.16 226.59 230.08 229.36 225.36 231.11 220.64 230.39 217.63 231.31 215.92 232.33 211.23 236.03 211.2 236.06 206.48 238.19 203.48 240.75 201.76 241.84 198.32 245.47 197.83 250.19 197.94 254.91 201.76 259.57 201.84 259.63 203.5 264.35 201.76 266.12 201.12 269.07 201.76 269.07 206.48 269.07 211.2 269.07 215.92 269.07 220.55 269.07 220.64 268.99 225.36 265.4 226.82 264.35 230.08 262.32 234.8 260.72 236.79 259.63 239.52 258.29 244.24 255.86 246.75 254.91 248.96 253.42 253.68 253.07 258.4 252.45 263.13 250.63 264.43 250.19 263.13 249.28 258.51 245.47 258.4 245.3 255.67 240.75 253.68 239.63 249.81 236.03 248.96 235.02 244.24 231.91 243.47 231.31 239.52 229.61 235.92 226.59 234.8 226.07"/>
      <polygon class="cls-19" points="112.06 226.15 107.75 226.59 107.34 226.81 102.75 231.31 102.62 231.44 98.67 236.03 97.9 236.88 93.18 238.27 88.46 239.98 85.4 240.75 83.74 241.21 79.02 245.22 78.53 245.47 74.71 250.19 79.02 251.3 83.74 252.39 88.46 253.81 93.18 254.4 95.71 254.91 97.9 255.24 102.62 256.93 107.34 259.11 108.32 259.63 112.06 260.95 116.78 263.23 120.71 264.35 121.5 264.5 126.22 265.73 130.94 268.04 132.23 269.07 135.67 269.07 140.39 269.07 141.91 269.07 141.75 264.35 142.4 259.63 143.01 254.91 143.31 250.19 142.45 245.47 140.39 244 135.67 242.66 133.28 240.75 130.94 237.64 129.57 236.03 126.22 233.14 121.5 231.53 121.05 231.31 116.78 228.72 114.16 226.59 112.06 226.15"/>
      <polygon class="cls-21" points="74.3 47.2 69.58 47.2 64.85 47.2 63.39 47.2 60.13 49.87 60.13 51.92 60.13 56.64 60.13 61.36 60.13 62.33 60.87 66.08 61.53 70.8 62.24 75.52 64.85 79.46 66.51 80.24 69.58 81.39 74.3 82.43 78.85 80.24 79.02 80.14 79.18 80.24 83.74 84.09 87.81 84.97 88.46 85.13 92.45 89.69 93.18 89.99 97.9 90.73 102.62 93.54 104.08 94.41 107.34 95.98 112.06 97.07 116.78 96.88 121.5 98.51 123.05 99.13 126.22 100.08 130.94 99.75 135.67 99.41 140.39 100.59 145.11 102.62 149.83 103.59 150.66 103.85 154.55 104.79 159.27 105.61 163.99 108.15 164.72 108.57 168.71 110.25 173.43 111.51 177.57 113.29 178.15 113.53 182.87 115.61 187.59 117.65 188.28 118.01 192.31 120.38 196.91 122.73 197.04 122.79 201.76 125.16 205.85 127.45 206.48 127.8 211.2 131.49 212 132.17 215.92 134.88 218.08 136.89 220.64 139.32 223.37 141.61 225.36 143.45 229.64 146.33 230.08 146.77 233.37 151.06 234.8 152.6 237.24 155.78 239.52 158.12 241.76 160.5 244.24 163.59 245.86 165.22 248.96 169.63 249.19 169.94 253.68 173.29 255.26 174.66 258.4 177.28 260.36 179.38 263.13 182.55 264.41 184.1 267.85 187.7 268.77 188.82 272.57 191.77 274.27 193.54 277.29 196.57 281.64 198.26 282.01 198.4 282.01 198.26 282.01 194.32 277.29 193.67 277.16 193.54 272.75 188.82 272.57 188.69 269.53 184.1 267.85 182.64 265.26 179.38 263.13 176.79 261.17 174.66 258.4 171.89 256.13 169.94 253.68 165.37 253.58 165.22 248.96 160.69 248.77 160.5 244.76 155.78 244.24 155.17 241.01 151.06 239.52 149.81 237.42 146.33 234.8 143.48 232.3 141.61 230.08 137.34 229.82 136.89 225.36 132.22 225.26 132.17 220.64 129.67 216.62 127.45 215.92 127.05 211.2 124.04 209.15 122.73 206.48 120.67 203.33 118.01 201.76 116.93 197.04 115.08 192.31 113.73 191.3 113.29 187.59 110.96 182.87 108.77 182.27 108.57 178.15 107.03 173.43 104.99 170.82 103.85 168.71 103.08 163.99 102.04 159.27 100.7 154.55 99.4 153.65 99.13 149.83 97.81 145.11 97.22 140.39 96.25 135.67 95.42 131.9 94.41 130.94 93.59 126.22 92.41 122.07 94.41 121.5 94.52 121.12 94.41 116.78 92.63 112.06 92.33 107.34 91.44 102.62 90.37 101.47 89.69 97.9 86.7 95.94 84.97 94.35 80.24 93.18 78.84 88.46 78.48 83.74 78.12 79.02 76.07 74.3 78.65 69.58 78.49 64.85 77.08 63.82 75.52 63.48 70.8 63.18 66.08 62.75 61.36 62.37 56.64 63.86 51.92 64.85 51.04 69.58 50.16 74.3 48.66 77.23 47.2 74.3 47.2"/>
      <polygon class="cls-21" points="74.3 130.87 69.58 130.35 64.85 127.66 60.13 129.87 60.13 132.17 60.13 134 64.79 132.17 64.85 132.16 64.88 132.17 69.58 134.78 74.3 136.06 74.66 136.89 75.97 141.61 77.59 146.33 79.02 149.58 79.65 151.05 81.17 155.78 80.71 160.5 80.55 165.22 80.64 169.94 79.55 174.66 79.02 175.38 75.88 179.38 74.3 180.39 69.58 182.18 64.85 183.77 60.13 183.05 60.13 184.1 60.13 188.82 60.13 191.07 64.85 188.98 65.18 188.82 69.58 186.18 73.59 184.1 74.3 183.69 79.02 180.63 80.69 179.38 83.74 175.47 84.01 174.66 84.32 169.94 84.57 165.22 84.94 160.5 85.05 155.78 84.54 151.05 83.74 147.41 83.25 146.33 80.07 141.61 79.02 139.21 78.06 136.89 77.33 132.17 74.3 130.87"/>
      <polygon class="cls-21" points="239.52 224.93 234.8 223.1 230.08 224.23 225.36 226.54 220.64 226.58 220.62 226.59 215.92 228.68 211.2 230.69 210.23 231.31 206.48 234.04 203.77 236.03 201.75 237.94 197.52 240.75 197.03 241.26 193.74 245.47 193.59 250.19 193.55 254.91 194.37 259.63 195.23 264.35 197.03 267.95 197.7 269.07 201.12 269.07 201.75 266.11 203.5 264.35 201.84 259.63 201.75 259.57 197.94 254.91 197.83 250.19 198.32 245.47 201.75 241.84 203.48 240.75 206.48 238.19 211.2 236.06 211.23 236.03 215.92 232.33 217.63 231.31 220.64 230.39 225.36 231.11 230.08 229.36 233.16 226.59 234.8 226.07 235.92 226.59 239.52 229.61 243.47 231.31 244.24 231.91 248.96 235.02 249.81 236.03 253.68 239.63 255.66 240.75 258.4 245.3 258.51 245.47 263.12 249.29 264.43 250.19 263.12 250.63 258.4 252.44 253.68 253.07 248.96 253.42 246.76 254.91 244.24 255.86 239.52 258.29 236.79 259.63 234.8 260.72 230.08 262.32 226.82 264.35 225.36 265.4 220.64 268.99 220.55 269.07 220.64 269.07 225.36 269.07 227.2 269.07 230.08 266.8 234.8 265.81 237.03 264.35 239.52 262.74 244.18 259.63 244.24 259.6 248.96 258.93 253.68 257.58 258.4 256.16 260.3 254.91 263.12 253.17 267.85 251.56 271.88 250.19 272.57 249.71 275.18 250.19 277.29 250.4 277.65 250.19 281.07 245.47 277.29 244.42 272.57 243.34 267.85 243.7 263.12 243.04 261.66 240.75 258.4 239.14 253.68 236.25 253.45 236.03 249.39 231.31 248.96 230.82 244.24 227.84 242.21 226.59 239.52 224.93"/>
      <polygon class="cls-21" points="121.5 226.15 116.78 224.69 112.06 223.47 107.34 221.89 102.62 223.83 98.03 226.59 97.9 226.7 93.18 230.5 91.97 231.31 88.46 233.96 85.17 236.03 83.74 237.21 79.02 239.36 74.3 240.75 74.29 240.75 69.58 243.37 64.86 244.57 64.19 245.47 64.86 248.18 67.23 250.19 69.58 251.02 74.3 252.45 79.02 253.58 81.79 254.91 83.74 255.79 88.46 257.27 92.69 259.63 93.18 259.83 97.9 260.36 102.62 262.28 107.34 263.9 108.82 264.35 112.06 265.38 116.78 267.19 121.5 268.47 122.93 269.07 126.22 269.07 130.94 269.07 132.23 269.07 130.94 268.04 126.22 265.73 121.5 264.5 120.71 264.35 116.78 263.23 112.06 260.95 108.32 259.63 107.34 259.11 102.62 256.93 97.9 255.24 95.71 254.91 93.18 254.4 88.46 253.81 83.74 252.39 79.02 251.3 74.71 250.19 78.53 245.47 79.02 245.22 83.74 241.21 85.4 240.75 88.46 239.98 93.18 238.27 97.9 236.88 98.68 236.03 102.62 231.43 102.75 231.31 107.34 226.81 107.75 226.59 112.06 226.15 114.16 226.59 116.78 228.72 121.05 231.31 121.5 231.54 126.22 233.14 129.57 236.03 130.94 237.64 133.28 240.75 135.67 242.66 140.39 244 142.45 245.47 143.31 250.19 143.01 254.91 142.4 259.63 141.75 264.35 141.91 269.07 145.11 269.07 145.99 269.07 146.78 264.35 147.38 259.63 148.63 254.91 149.75 250.19 148.08 245.47 145.11 242.84 142.49 240.75 140.39 238.56 136.88 236.03 135.67 235.53 130.94 232.69 129.44 231.31 126.22 229.61 122.19 226.59 121.5 226.15"/>
      <polygon class="cls-13" points="60.13 47.2 60.13 49.87 63.39 47.2 60.13 47.2"/>
      <polygon class="cls-13" points="60.13 62.33 60.13 66.08 60.13 70.8 60.13 73.02 60.65 75.52 62.99 80.24 64.85 81.34 69.58 83.27 73.34 84.96 74.3 85.43 76.9 84.96 79.02 84.22 79.86 84.96 83.74 88.41 86.1 89.69 88.46 90.74 93.18 92.42 97.9 93.9 98.75 94.41 102.62 96.38 107.34 98.55 109.14 99.13 112.06 100 116.78 100.36 121.5 101.86 126.22 103.09 130.95 103.21 135.67 103.37 137.57 103.85 140.39 104.56 145.11 106.97 149.83 108.54 150.03 108.57 154.55 109.21 159.27 110.37 163.99 112.56 165.78 113.29 168.71 114.36 173.43 115.78 178.15 117.81 178.61 118.01 182.87 119.83 187.59 122.4 188.08 122.73 192.31 125.25 195.93 127.45 197.03 128.14 201.76 130.48 204.5 132.17 206.48 133.49 211.2 136.78 211.35 136.89 215.92 140.18 217.43 141.61 220.64 144.68 222.42 146.33 225.36 148.86 227.57 151.06 230.08 153.2 232.54 155.78 234.8 158 237.25 160.5 239.52 162.93 241.5 165.22 244.24 168.54 245.4 169.94 248.96 174.08 249.69 174.66 253.68 177.83 255.5 179.38 258.4 182.35 259.94 184.1 263.12 186.93 264.93 188.82 267.85 191.24 270.86 193.54 272.57 194.65 276.17 198.26 277.29 199.27 282.01 201.16 282.01 198.4 281.64 198.26 277.29 196.57 274.27 193.54 272.57 191.77 268.77 188.82 267.85 187.7 264.41 184.1 263.12 182.55 260.36 179.38 258.4 177.28 255.26 174.66 253.68 173.28 249.19 169.94 248.96 169.63 245.86 165.22 244.24 163.59 241.76 160.5 239.52 158.12 237.24 155.78 234.8 152.6 233.37 151.06 230.08 146.77 229.64 146.33 225.36 143.45 223.37 141.61 220.64 139.33 218.08 136.89 215.92 134.88 212 132.17 211.2 131.49 206.48 127.8 205.85 127.45 201.76 125.16 197.03 122.79 196.91 122.73 192.31 120.38 188.28 118.01 187.59 117.65 182.87 115.61 178.15 113.53 177.57 113.29 173.43 111.51 168.71 110.25 164.72 108.57 163.99 108.15 159.27 105.61 154.55 104.79 150.66 103.85 149.83 103.59 145.11 102.62 140.39 100.59 135.67 99.41 130.95 99.75 126.22 100.08 123.05 99.13 121.5 98.51 116.78 96.88 112.06 97.07 107.34 95.98 104.08 94.41 102.62 93.54 97.9 90.73 93.18 89.99 92.46 89.69 88.46 85.13 87.81 84.96 83.74 84.09 79.18 80.24 79.02 80.14 78.85 80.24 74.3 82.43 69.58 81.39 66.51 80.24 64.85 79.46 62.24 75.52 61.53 70.8 60.87 66.08 60.13 62.33"/>
      <polygon class="cls-13" points="69.58 126.81 64.86 124.93 60.13 126.99 60.13 127.45 60.13 129.87 64.86 127.66 69.58 130.35 74.3 130.87 77.34 132.17 78.06 136.89 79.02 139.21 80.07 141.61 83.25 146.33 83.74 147.41 84.54 151.05 85.05 155.78 84.94 160.5 84.57 165.22 84.32 169.94 84.01 174.66 83.74 175.47 80.69 179.38 79.02 180.63 74.3 183.69 73.59 184.1 69.58 186.18 65.18 188.82 64.86 188.98 60.13 191.07 60.13 193.54 60.13 194.21 61.33 193.54 64.86 191.43 69.58 189.05 70.06 188.82 74.3 186.46 78.54 184.1 79.02 183.79 83.74 180.35 84.33 179.38 85.87 174.66 86.46 169.94 87.17 165.22 87.18 160.5 87.14 155.78 87.24 151.05 86.77 146.33 83.74 141.73 83.66 141.61 81.42 136.89 81.48 132.17 79.02 129.73 74.3 128.27 71.66 127.45 69.58 126.81"/>
      <polygon class="cls-13" points="239.52 221.43 234.8 220.74 230.08 221.25 225.36 221.85 225.31 221.87 220.64 224.16 215.92 225.93 214.59 226.59 211.2 228.41 206.67 231.31 206.48 231.45 201.75 234.81 200.5 236.03 197.03 238.71 194.44 240.75 192.31 243.25 190.38 245.47 190.64 250.19 190.88 254.91 191.57 259.63 192.31 264.35 192.31 264.36 194.71 269.07 197.03 269.07 197.7 269.07 197.03 267.95 195.23 264.35 194.37 259.63 193.55 254.91 193.59 250.19 193.74 245.47 197.03 241.26 197.52 240.75 201.75 237.94 203.77 236.03 206.48 234.05 210.23 231.31 211.2 230.69 215.92 228.68 220.62 226.59 220.64 226.58 225.36 226.54 230.08 224.23 234.8 223.1 239.52 224.93 242.21 226.59 244.24 227.84 248.96 230.82 249.39 231.31 253.45 236.03 253.68 236.25 258.4 239.14 261.66 240.75 263.12 243.04 267.85 243.7 272.57 243.34 277.29 244.42 281.07 245.47 277.65 250.19 277.29 250.4 275.18 250.19 272.57 249.71 271.88 250.19 267.85 251.56 263.12 253.17 260.3 254.91 258.4 256.16 253.68 257.58 248.96 258.93 244.24 259.6 244.18 259.63 239.52 262.74 237.03 264.35 234.8 265.81 230.08 266.8 227.2 269.07 230.08 269.07 234.8 269.07 235.82 269.07 239.52 266.3 242.05 264.35 244.24 262.68 248.96 262.08 253.68 260.78 256.74 259.63 258.4 258.85 263.12 255.86 265.44 254.91 267.85 254.09 272.57 253.05 277.29 253.15 282.01 250.47 282.01 250.19 282.01 245.47 282.01 243.8 277.29 242.81 272.57 240.77 272.28 240.75 267.85 240.42 263.12 238.27 258.4 236.19 258.14 236.03 253.68 232.54 252.62 231.31 248.96 227.13 248.1 226.59 244.24 224.14 240.55 221.87 239.52 221.43"/>
      <polygon class="cls-13" points="112.06 221.1 107.34 219.95 102.62 220.3 100.84 221.87 97.9 224.19 94.97 226.59 93.18 228.06 88.46 231.19 88.28 231.31 83.74 234.32 80.19 236.03 79.02 236.64 74.3 238.96 69.8 240.75 69.58 240.87 64.86 242.7 62.82 245.47 63.12 250.19 64.86 251.63 69.58 253.37 74.3 254.83 74.66 254.91 79.02 255.82 83.74 257.94 87.63 259.63 88.46 259.97 93.18 261.92 97.9 263.97 98.62 264.35 102.62 265.99 107.34 268.26 109.45 269.07 112.06 269.07 116.78 269.07 121.5 269.07 122.93 269.07 121.5 268.47 116.78 267.19 112.06 265.38 108.82 264.35 107.34 263.9 102.62 262.28 97.9 260.36 93.18 259.83 92.69 259.63 88.46 257.27 83.74 255.79 81.79 254.91 79.02 253.58 74.3 252.45 69.58 251.02 67.23 250.19 64.86 248.18 64.19 245.47 64.86 244.56 69.58 243.36 74.29 240.75 74.3 240.75 79.02 239.36 83.74 237.21 85.17 236.03 88.46 233.96 91.97 231.31 93.18 230.51 97.9 226.7 98.03 226.59 102.62 223.83 107.34 221.89 112.06 223.47 116.78 224.69 121.5 226.15 122.19 226.59 126.22 229.61 129.44 231.31 130.94 232.69 135.67 235.53 136.88 236.03 140.39 238.55 142.49 240.75 145.11 242.84 148.08 245.47 149.75 250.19 148.63 254.91 147.38 259.63 146.78 264.35 145.99 269.07 148.88 269.07 149.17 264.35 149.83 261.51 150.19 259.63 151.39 254.91 152.63 250.19 151.49 245.47 149.83 243.89 146.42 240.75 145.11 239.37 141.85 236.03 140.39 234.93 135.67 232.58 133.79 231.31 130.94 229.8 126.22 227.32 125.25 226.59 121.5 224.19 116.78 222.31 115.29 221.87 112.06 221.1"/>
      <polygon class="cls-8" points="60.13 73.02 60.13 75.52 60.13 80.05 60.22 80.24 64.85 82.98 69.2 84.97 69.58 85.17 74.3 87.46 79.02 88.29 80.59 89.69 83.74 91.28 88.46 94.08 90.11 94.41 93.18 94.89 97.9 96.84 102.62 99.11 102.66 99.13 107.34 101 112.06 102.41 116.78 103.7 117.28 103.85 121.5 104.75 126.22 105.87 130.95 106.68 135.67 107.32 140.39 108.54 140.44 108.57 145.11 110.36 149.83 111.77 154.34 113.29 154.55 113.36 159.27 114.79 163.99 116.43 168.17 118.01 168.71 118.2 173.43 119.96 178.15 122 179.87 122.73 182.87 124.05 187.59 126.74 188.86 127.45 192.31 129.24 196.88 132.17 197.03 132.27 201.76 135.09 204.25 136.89 206.48 138.38 210.89 141.61 211.2 141.84 215.92 145.3 217 146.33 220.64 149.22 222.72 151.06 225.36 153.24 228.28 155.78 230.08 157.4 233.22 160.5 234.8 162.03 237.79 165.22 239.52 167.26 241.72 169.94 244.24 172.91 245.74 174.66 248.96 177.99 250.67 179.38 253.68 182.3 255.45 184.1 258.4 186.64 260.84 188.82 263.12 190.62 266.69 193.54 267.85 194.31 272.57 197.36 273.47 198.26 277.29 201.7 280.15 202.98 282.01 203.92 282.01 202.98 282.01 201.16 277.29 199.27 276.17 198.26 272.57 194.65 270.86 193.54 267.85 191.24 264.93 188.82 263.12 186.94 259.94 184.1 258.4 182.35 255.5 179.38 253.68 177.83 249.69 174.66 248.96 174.08 245.4 169.94 244.24 168.54 241.5 165.22 239.52 162.93 237.25 160.5 234.8 158 232.54 155.78 230.08 153.2 227.57 151.06 225.36 148.86 222.42 146.33 220.64 144.68 217.43 141.61 215.92 140.18 211.35 136.89 211.2 136.78 206.48 133.49 204.5 132.17 201.76 130.48 197.03 128.14 195.93 127.45 192.31 125.25 188.08 122.73 187.59 122.4 182.87 119.83 178.61 118.01 178.15 117.81 173.43 115.78 168.71 114.36 165.78 113.29 163.99 112.56 159.27 110.37 154.55 109.21 150.03 108.57 149.83 108.54 145.11 106.97 140.39 104.56 137.57 103.85 135.67 103.37 130.95 103.21 126.22 103.1 121.5 101.86 116.78 100.36 112.06 100 109.14 99.13 107.34 98.55 102.62 96.38 98.75 94.41 97.9 93.9 93.18 92.42 88.46 90.74 86.1 89.69 83.74 88.41 79.86 84.97 79.02 84.22 76.9 84.97 74.3 85.43 73.34 84.97 69.58 83.27 64.85 81.35 62.99 80.24 60.65 75.52 60.13 73.02"/>
      <polygon class="cls-8" points="64.85 122.37 64.03 122.73 60.13 124.61 60.13 126.99 64.85 124.93 69.57 126.81 71.66 127.45 74.3 128.27 79.02 129.73 81.48 132.17 81.42 136.89 83.66 141.61 83.74 141.73 86.77 146.33 87.24 151.06 87.14 155.78 87.18 160.5 87.17 165.22 86.46 169.94 85.87 174.66 84.33 179.38 83.74 180.35 79.02 183.79 78.54 184.1 74.3 186.46 70.06 188.82 69.57 189.05 64.85 191.43 61.33 193.54 60.13 194.21 60.13 196.48 64.85 193.88 65.46 193.54 69.57 191.35 74.3 189.14 74.92 188.82 79.02 186.54 83.38 184.1 83.74 183.84 86.48 179.38 87.73 174.66 88.46 170.64 88.6 169.94 89.4 165.22 89.29 160.5 89.24 155.78 89.59 151.06 89.5 146.33 88.46 143.54 87.24 141.61 84.78 136.89 84.8 132.17 83.74 129.39 81.76 127.45 79.02 126.72 74.3 125.75 69.57 124.2 65.93 122.73 64.85 122.37"/>
      <polygon class="cls-8" points="244.24 220.62 239.52 218.87 234.8 218.83 230.08 219.33 225.36 220.02 220.64 221.76 220.38 221.87 215.92 223.82 211.2 226.14 210.49 226.59 206.48 229.17 202.73 231.31 201.76 232 197.59 236.03 197.04 236.46 192.31 240.16 191.64 240.75 187.59 245.31 187.49 245.47 187.59 246.33 188.18 250.19 188.78 254.91 189.47 259.63 190.22 264.35 191.88 269.07 192.31 269.07 194.71 269.07 192.31 264.36 192.31 264.35 191.57 259.63 190.88 254.91 190.64 250.19 190.38 245.47 192.31 243.25 194.44 240.75 197.04 238.71 200.5 236.03 201.76 234.81 206.48 231.45 206.67 231.31 211.2 228.41 214.59 226.59 215.92 225.93 220.64 224.16 225.32 221.87 225.36 221.85 230.08 221.25 234.8 220.74 239.52 221.43 240.55 221.87 244.24 224.13 248.1 226.59 248.96 227.13 252.62 231.31 253.68 232.54 258.14 236.03 258.4 236.19 263.12 238.27 267.85 240.42 272.28 240.75 272.57 240.76 277.29 242.81 282.01 243.8 282.01 241.8 277.29 241.2 276.25 240.75 272.57 238.9 267.85 237.09 265.47 236.03 263.12 235.32 258.4 233.79 255.53 231.31 253.68 229.36 251.2 226.59 248.96 224.5 245.49 221.87 244.24 220.62"/>
      <polygon class="cls-8" points="116.78 219.86 112.06 219.19 107.34 218.03 102.62 217.6 97.9 221.73 97.75 221.87 93.18 225.59 91.78 226.59 88.46 228.83 84.46 231.31 83.74 231.79 79.02 234.34 76.43 236.03 74.3 237.17 69.58 239.26 65.06 240.75 64.85 240.83 61.44 245.47 60.41 250.19 64.85 253.87 67.57 254.91 69.58 255.72 74.3 257.02 79.02 257.98 82.69 259.63 83.74 260.08 88.46 262 93.18 264.01 93.9 264.35 97.9 266.28 102.62 268.76 103.19 269.07 107.34 269.07 109.45 269.07 107.34 268.26 102.62 265.99 98.62 264.35 97.9 263.97 93.18 261.92 88.46 259.97 87.63 259.63 83.74 257.94 79.02 255.82 74.66 254.91 74.3 254.83 69.58 253.37 64.85 251.63 63.12 250.19 62.82 245.47 64.85 242.7 69.58 240.87 69.8 240.75 74.3 238.96 79.02 236.64 80.19 236.03 83.74 234.32 88.28 231.31 88.46 231.2 93.18 228.06 94.97 226.59 97.9 224.19 100.84 221.87 102.62 220.3 107.34 219.95 112.06 221.1 115.29 221.87 116.78 222.31 121.5 224.19 125.25 226.59 126.22 227.32 130.94 229.8 133.8 231.31 135.67 232.58 140.39 234.93 141.85 236.03 145.11 239.37 146.42 240.75 149.83 243.89 151.49 245.47 152.63 250.19 151.39 254.91 150.2 259.63 149.83 261.51 149.17 264.35 148.87 269.07 149.83 269.07 151.39 269.07 151.45 264.35 152.2 259.63 153.55 254.91 154.55 252.13 155.35 250.19 154.55 246.71 154.23 245.47 149.83 241.3 149.23 240.75 145.11 236.42 144.73 236.03 140.39 232.77 137.83 231.31 135.67 229.99 130.94 227.5 129.21 226.59 126.22 224.87 121.5 222.23 120.62 221.87 116.78 219.86"/>
      <polygon class="cls-8" points="277.29 253.15 272.57 253.05 267.85 254.09 265.44 254.91 263.13 255.86 258.4 258.85 256.74 259.63 253.68 260.78 248.96 262.08 244.24 262.68 242.05 264.35 239.52 266.3 235.82 269.07 239.52 269.07 240.02 269.07 244.24 265.93 248.96 264.81 250.05 264.35 253.68 262.93 258.4 261.14 261.96 259.63 263.13 258.92 267.85 256.64 272.57 255.74 277.29 255.52 278.99 254.91 282.01 253.18 282.01 250.47 277.29 253.15"/>
      <polygon class="cls-20" points="60.13 80.05 60.13 80.24 60.13 82.29 64.85 84.61 65.62 84.97 69.58 87.11 74.3 89.5 74.87 89.69 79.02 91.1 83.74 93.61 85.03 94.41 88.46 96.08 93.18 97.57 96.66 99.13 97.9 99.67 102.62 101.65 107.34 103.41 108.82 103.85 112.06 104.81 116.78 106.06 121.5 107.1 126.22 108.56 126.24 108.57 130.95 109.87 135.67 110.67 140.39 111.79 144.99 113.29 145.11 113.33 149.83 114.89 154.55 116.52 158.57 118.01 159.27 118.28 163.99 119.97 168.71 121.81 170.74 122.73 173.43 123.92 178.15 125.89 181.25 127.45 182.87 128.26 187.59 130.67 190.45 132.17 192.31 133.16 197.03 136.15 198.18 136.89 201.76 139.18 205.31 141.61 206.48 142.44 211.2 145.89 211.77 146.33 215.92 149.48 217.87 151.06 220.64 153.21 223.72 155.78 225.36 157.16 229.04 160.5 230.08 161.47 233.92 165.22 234.8 166.15 238.01 169.94 239.52 171.85 241.87 174.66 244.24 176.75 246.79 179.38 248.96 181.65 251.48 184.1 253.68 186.15 256.73 188.82 258.4 190.26 262.54 193.54 263.12 193.93 267.85 197.05 269.72 198.26 272.57 200.1 275.81 202.98 277.29 204.06 282.01 206.68 282.01 203.92 280.15 202.98 277.29 201.7 273.47 198.26 272.57 197.36 267.85 194.31 266.69 193.54 263.12 190.62 260.84 188.82 258.4 186.64 255.45 184.1 253.68 182.3 250.67 179.38 248.96 177.99 245.74 174.66 244.24 172.91 241.72 169.94 239.52 167.26 237.79 165.22 234.8 162.03 233.22 160.5 230.08 157.4 228.28 155.78 225.36 153.24 222.72 151.06 220.64 149.22 217 146.33 215.92 145.3 211.2 141.84 210.89 141.61 206.48 138.38 204.25 136.89 201.76 135.09 197.03 132.27 196.88 132.17 192.31 129.24 188.86 127.45 187.59 126.74 182.87 124.05 179.87 122.73 178.15 122 173.43 119.96 168.71 118.2 168.17 118.01 163.99 116.43 159.27 114.79 154.55 113.36 154.34 113.29 149.83 111.77 145.11 110.36 140.44 108.57 140.39 108.54 135.67 107.32 130.95 106.68 126.22 105.87 121.5 104.75 117.28 103.85 116.78 103.7 112.06 102.41 107.34 101 102.66 99.13 102.62 99.11 97.9 96.83 93.18 94.89 90.11 94.41 88.46 94.08 83.74 91.28 80.59 89.69 79.02 88.29 74.3 87.46 69.58 85.17 69.2 84.97 64.85 82.98 60.22 80.24 60.13 80.05"/>
      <polygon class="cls-20" points="69.58 121.8 64.86 120.21 60.13 120.85 60.13 122.73 60.13 124.61 64.03 122.73 64.86 122.37 65.94 122.73 69.58 124.2 74.3 125.75 79.02 126.72 81.76 127.45 83.74 129.39 84.8 132.17 84.78 136.89 87.24 141.61 88.46 143.54 89.5 146.33 89.59 151.05 89.24 155.78 89.29 160.5 89.4 165.22 88.6 169.94 88.46 170.64 87.73 174.66 86.48 179.38 83.74 183.84 83.38 184.1 79.02 186.54 74.92 188.82 74.3 189.14 69.58 191.35 65.46 193.54 64.86 193.88 60.13 196.48 60.13 198.26 60.13 198.71 61.11 198.26 64.86 196.28 69.58 193.65 69.84 193.54 74.3 191.62 79.02 189.3 80.14 188.82 83.74 187.17 87.18 184.1 88.46 180.26 88.61 179.38 89.58 174.66 90.59 169.94 91.26 165.22 91.26 160.5 91.35 155.78 91.65 151.05 91.62 146.33 90.01 141.61 88.46 137.5 88.13 136.89 87.94 132.17 86.26 127.45 83.74 125.76 79.02 124.49 74.3 123.28 72.7 122.73 69.58 121.8"/>
      <polygon class="cls-20" points="239.52 216.5 234.8 216.9 232.56 217.15 230.08 217.4 225.36 218.19 220.64 219.76 215.92 221.72 215.57 221.87 211.2 223.9 206.97 226.59 206.48 226.9 201.75 229.65 199.33 231.31 197.03 233.52 194.66 236.03 192.31 237.86 189.04 240.75 187.59 242.38 185.62 245.47 185.64 250.19 186.63 254.91 187.38 259.63 187.59 261 188.12 264.35 189.31 269.07 191.88 269.07 190.22 264.35 189.47 259.63 188.78 254.91 188.18 250.19 187.59 246.34 187.49 245.47 187.59 245.31 191.64 240.75 192.31 240.15 197.03 236.46 197.59 236.03 201.75 232 202.73 231.31 206.48 229.17 210.49 226.59 211.2 226.14 215.92 223.82 220.38 221.87 220.64 221.76 225.36 220.02 230.08 219.32 234.8 218.83 239.52 218.87 244.24 220.62 245.49 221.87 248.96 224.5 251.2 226.59 253.68 229.36 255.53 231.31 258.4 233.79 263.12 235.32 265.47 236.03 267.85 237.09 272.57 238.9 276.25 240.75 277.29 241.2 282.01 241.8 282.01 240.75 282.01 238.72 277.29 239.56 272.57 237.04 270.47 236.03 267.85 234.68 263.12 233.08 258.4 231.41 258.28 231.31 253.83 226.59 253.68 226.47 248.96 222.06 248.71 221.87 244.24 217.4 243.31 217.15 239.52 216.5"/>
      <polygon class="cls-20" points="107.34 216.12 102.62 215.53 99.85 217.15 97.9 218.84 94.67 221.87 93.18 223.08 88.46 226.47 88.25 226.59 83.74 229.3 80.55 231.31 79.02 232.16 74.3 235.18 73.09 236.03 69.57 237.68 64.85 239.02 61.98 240.75 60.13 245.12 60.13 245.47 60.13 250.19 60.13 253.81 61.73 254.91 64.85 256.09 69.57 258.09 74.3 259.2 76.44 259.63 79.02 260.14 83.74 262.14 88.46 264.02 89.23 264.35 93.18 266.21 97.9 268.45 99.06 269.07 102.62 269.07 103.19 269.07 102.62 268.76 97.9 266.28 93.9 264.35 93.18 264.01 88.46 262 83.74 260.08 82.69 259.63 79.02 257.98 74.3 257.02 69.57 255.72 67.57 254.91 64.85 253.87 60.41 250.19 61.44 245.47 64.85 240.83 65.06 240.75 69.57 239.26 74.3 237.17 76.43 236.03 79.02 234.34 83.74 231.79 84.46 231.31 88.46 228.83 91.78 226.59 93.18 225.59 97.75 221.87 97.9 221.73 102.62 217.6 107.34 218.03 112.06 219.19 116.78 219.86 120.62 221.87 121.5 222.23 126.22 224.88 129.21 226.59 130.94 227.5 135.67 229.99 137.83 231.31 140.39 232.77 144.73 236.03 145.11 236.42 149.23 240.75 149.83 241.3 154.23 245.47 154.55 246.71 155.35 250.19 154.55 252.13 153.55 254.91 152.2 259.63 151.45 264.35 151.39 269.07 153.73 269.07 153.69 264.35 154.21 259.63 154.55 258.5 155.67 254.91 157.81 250.19 156.61 245.47 154.55 243.21 151.95 240.75 149.83 238.68 147.29 236.03 145.11 234.23 141.27 231.31 140.39 230.5 135.67 227.67 133.61 226.59 130.94 225.21 126.22 222.36 125.31 221.87 121.5 219.89 116.78 217.4 112.06 217.27 111.54 217.15 107.34 216.12"/>
      <polygon class="cls-20" points="278.99 254.91 277.29 255.52 272.57 255.74 267.85 256.64 263.12 258.92 261.96 259.63 258.4 261.14 253.68 262.93 250.05 264.35 248.96 264.81 244.24 265.93 240.02 269.07 244.24 269.07 244.69 269.07 248.96 267.11 253.68 265.1 255.58 264.35 258.4 263.27 263.12 261.3 266.96 259.63 267.85 259.18 272.57 257.77 277.29 257.2 282.01 255.65 282.01 254.91 282.01 253.18 278.99 254.91"/>
      <polygon class="cls-16" points="64.85 84.61 60.13 82.29 60.13 84.39 61.36 84.96 64.85 86.49 69.57 89.05 70.83 89.69 74.3 91.39 79.02 93.26 81.13 94.41 83.74 95.66 88.46 97.92 91.33 99.13 93.18 100.17 97.9 102.29 101.74 103.85 102.62 104.21 107.34 105.89 112.06 107.2 116.78 108.37 117.68 108.57 121.5 109.59 126.22 111.53 130.94 112.72 133.64 113.29 135.67 113.75 140.39 114.95 145.11 116.42 149.83 117.91 150.1 118.01 154.55 119.75 159.27 121.57 162.41 122.73 163.99 123.35 168.71 125.37 173.43 127.42 173.51 127.45 178.15 129.61 182.87 132.03 183.15 132.17 187.59 134.48 191.99 136.89 192.31 137.08 197.03 139.95 199.6 141.61 201.76 143.07 206.39 146.33 206.48 146.4 211.2 149.94 212.68 151.06 215.92 153.51 218.88 155.78 220.64 157.22 224.58 160.5 225.36 161.12 229.73 165.22 230.08 165.57 234.21 169.94 234.8 170.62 237.98 174.66 239.52 176.1 243.24 179.38 244.24 180.3 247.87 184.1 248.96 185.12 252.94 188.82 253.68 189.5 258.4 193.54 258.4 193.55 263.13 196.67 265.53 198.26 267.85 199.92 272.57 202.86 272.7 202.98 277.29 206.32 279.61 207.7 282.01 209.25 282.01 207.7 282.01 206.68 277.29 204.06 275.81 202.98 272.57 200.1 269.73 198.26 267.85 197.05 263.13 193.93 262.54 193.54 258.4 190.26 256.73 188.82 253.68 186.15 251.48 184.1 248.96 181.65 246.79 179.38 244.24 176.75 241.87 174.66 239.52 171.85 238.01 169.94 234.8 166.15 233.92 165.22 230.08 161.47 229.04 160.5 225.36 157.16 223.72 155.78 220.64 153.21 217.87 151.06 215.92 149.49 211.77 146.33 211.2 145.89 206.48 142.44 205.31 141.61 201.76 139.18 198.18 136.89 197.03 136.15 192.31 133.16 190.45 132.17 187.59 130.67 182.87 128.26 181.25 127.45 178.15 125.89 173.43 123.92 170.74 122.73 168.71 121.81 163.99 119.97 159.27 118.28 158.57 118.01 154.55 116.52 149.83 114.89 145.11 113.33 144.99 113.29 140.39 111.79 135.67 110.68 130.94 109.87 126.24 108.57 126.22 108.57 121.5 107.1 116.78 106.06 112.06 104.81 108.82 103.85 107.34 103.41 102.62 101.65 97.9 99.67 96.66 99.13 93.18 97.57 88.46 96.07 85.03 94.41 83.74 93.61 79.02 91.1 74.87 89.69 74.3 89.5 69.57 87.11 65.62 84.96 64.85 84.61"/>
      <polygon class="cls-16" points="60.13 112.11 60.13 113.29 60.13 118.01 60.13 120.85 64.85 120.21 69.58 121.8 72.7 122.73 74.3 123.28 79.02 124.49 83.74 125.76 86.26 127.45 87.94 132.17 88.13 136.89 88.46 137.5 90.01 141.61 91.62 146.33 91.65 151.06 91.35 155.78 91.26 160.5 91.26 165.22 90.59 169.94 89.58 174.66 88.61 179.38 88.46 180.26 87.18 184.1 83.74 187.17 80.13 188.82 79.02 189.3 74.3 191.62 69.84 193.54 69.58 193.65 64.85 196.28 61.11 198.26 60.13 198.71 60.13 200.78 64.85 198.63 65.59 198.26 69.58 196.02 74.3 194.03 76.1 193.54 79.02 192.42 83.74 190.52 86.83 188.82 88.46 187.46 89.73 184.1 90.53 179.38 91.44 174.66 92.59 169.94 93.13 165.22 93.18 162.35 93.23 160.5 93.54 155.78 93.74 151.06 93.73 146.33 93.18 144.3 92.37 141.61 90.96 136.89 90.25 132.17 89.16 127.45 88.46 126.53 83.74 123.55 80.72 122.73 79.02 122.21 74.3 120.97 69.58 119.68 64.85 118.06 64.71 118.01 60.5 113.29 60.13 112.11"/>
      <polygon class="cls-16" points="244.24 214.92 239.52 214.49 234.8 214.89 230.08 215.41 225.36 216.34 222.61 217.15 220.64 217.76 215.92 219.68 211.2 221.67 210.86 221.87 206.48 224.61 203.22 226.59 201.76 227.44 197.04 230.55 196.19 231.31 192.31 235.4 191.66 236.03 187.59 239.52 186.4 240.75 183.76 245.47 183.09 250.19 184.42 254.91 185.28 259.63 186.03 264.35 186.78 269.07 187.59 269.07 189.31 269.07 188.12 264.35 187.59 261 187.38 259.63 186.63 254.91 185.64 250.19 185.62 245.47 187.59 242.38 189.04 240.75 192.31 237.86 194.66 236.03 197.04 233.52 199.33 231.31 201.76 229.65 206.48 226.9 206.97 226.59 211.2 223.9 215.57 221.87 215.92 221.72 220.64 219.76 225.36 218.19 230.08 217.4 232.56 217.15 234.8 216.9 239.52 216.5 243.31 217.15 244.24 217.4 248.71 221.87 248.96 222.06 253.68 226.47 253.83 226.59 258.28 231.31 258.4 231.41 263.12 233.08 267.85 234.68 270.47 236.03 272.57 237.04 277.29 239.56 282.01 238.72 282.01 236.03 282.01 234.45 280.85 236.03 277.29 237.9 273.92 236.03 272.57 235.05 267.85 232.7 264.2 231.31 263.12 230.83 258.4 228.36 256.73 226.59 253.68 224.18 251.21 221.87 248.96 219.63 246.48 217.15 244.24 214.92"/>
      <polygon class="cls-16" points="116.78 214.76 112.06 214.83 107.34 214.22 102.62 213.59 97.9 215.94 96.62 217.15 93.18 220.37 91.51 221.87 88.46 224.1 84.11 226.59 83.74 226.81 79.02 229.66 76.74 231.31 74.3 232.84 69.75 236.03 69.58 236.11 64.85 237.21 60.13 238.03 60.13 240.75 60.13 245.12 61.98 240.75 64.85 239.02 69.58 237.68 73.09 236.03 74.3 235.18 79.02 232.16 80.55 231.31 83.74 229.3 88.25 226.59 88.46 226.47 93.18 223.08 94.67 221.87 97.9 218.84 99.85 217.15 102.62 215.53 107.34 216.12 111.54 217.15 112.06 217.27 116.78 217.4 121.5 219.89 125.31 221.87 126.22 222.36 130.94 225.21 133.61 226.59 135.67 227.67 140.39 230.5 141.27 231.31 145.11 234.23 147.29 236.03 149.83 238.68 151.95 240.75 154.55 243.21 156.61 245.47 157.81 250.19 155.67 254.91 154.55 258.5 154.21 259.63 153.69 264.35 153.73 269.07 154.55 269.07 156.11 269.07 156.03 264.35 156.35 259.63 157.77 254.91 159.27 251.9 160.37 250.19 159.27 246.68 158.94 245.47 154.63 240.75 154.55 240.66 149.83 236.05 149.8 236.03 145.11 232.16 143.98 231.31 140.39 228 137.96 226.59 135.67 225.16 130.94 222.92 129.22 221.87 126.22 220.03 121.5 217.46 120.91 217.15 116.78 214.76"/>
      <polygon class="cls-16" points="60.13 253.81 60.13 254.91 60.13 256.51 64.85 258.29 67.86 259.63 69.58 260.62 74.3 261.61 79.02 262.25 83.74 264.2 84.12 264.35 88.46 266.42 93.18 268.43 94.55 269.07 97.9 269.07 99.06 269.07 97.9 268.45 93.18 266.21 89.23 264.35 88.46 264.02 83.74 262.14 79.02 260.14 76.44 259.63 74.3 259.2 69.58 258.09 64.85 256.09 61.73 254.91 60.13 253.81"/>
      <polygon class="cls-16" points="277.29 257.2 272.57 257.77 267.85 259.18 266.96 259.63 263.13 261.3 258.4 263.27 255.58 264.35 253.68 265.1 248.96 267.11 244.69 269.07 248.96 269.07 249.69 269.07 253.68 267.31 258.4 265.41 261 264.35 263.13 263.48 267.85 261.32 272.57 259.81 273.3 259.63 277.29 258.89 282.01 257.7 282.01 255.65 277.29 257.2"/>
      <polygon class="cls-22" points="60.13 84.39 60.13 84.97 60.13 86.77 64.85 88.43 67.18 89.69 69.58 90.99 74.3 93.26 76.97 94.41 79.02 95.54 83.74 97.57 87.04 99.13 88.46 99.95 93.18 102.65 95.75 103.85 97.9 104.94 102.62 106.89 107.34 108.38 108.06 108.57 112.06 109.63 116.78 110.93 121.5 112.32 123.71 113.29 126.22 114.48 130.95 115.62 135.67 116.84 140.27 118.01 140.39 118.04 145.11 119.69 149.83 121.37 153.63 122.73 154.55 123.09 159.27 124.99 163.99 126.84 165.4 127.45 168.71 129.03 173.43 131.04 175.86 132.17 178.15 133.43 182.87 135.76 185.04 136.89 187.59 138.42 192.31 141.18 193.07 141.61 197.03 143.95 200.66 146.33 201.76 147.1 206.48 150.43 207.31 151.06 211.2 154.17 213.36 155.78 215.92 157.88 219.18 160.5 220.64 161.61 225.34 165.22 225.36 165.24 230.08 169.94 230.08 169.94 234.2 174.66 234.8 175.28 239.23 179.38 239.52 179.6 244.24 183.99 244.35 184.1 248.96 188.45 249.37 188.82 253.68 192.73 254.63 193.54 258.4 196.28 261.39 198.26 263.12 199.59 267.85 202.89 268 202.98 272.57 205.49 275.8 207.7 277.29 208.59 282.01 211.71 282.01 209.25 279.61 207.7 277.29 206.32 272.7 202.98 272.57 202.86 267.85 199.92 265.53 198.26 263.12 196.67 258.4 193.55 258.4 193.54 253.68 189.5 252.94 188.82 248.96 185.12 247.88 184.1 244.24 180.3 243.24 179.38 239.52 176.1 237.98 174.66 234.8 170.62 234.21 169.94 230.08 165.57 229.73 165.22 225.36 161.12 224.58 160.5 220.64 157.22 218.88 155.78 215.92 153.51 212.67 151.06 211.2 149.94 206.48 146.4 206.39 146.33 201.76 143.07 199.6 141.61 197.03 139.95 192.31 137.09 191.99 136.89 187.59 134.48 183.15 132.17 182.87 132.03 178.15 129.61 173.51 127.45 173.43 127.42 168.71 125.37 163.99 123.35 162.41 122.73 159.27 121.57 154.55 119.75 150.1 118.01 149.83 117.91 145.11 116.42 140.39 114.95 135.67 113.75 133.64 113.29 130.95 112.72 126.22 111.53 121.5 109.59 117.68 108.57 116.78 108.37 112.06 107.2 107.34 105.89 102.62 104.21 101.74 103.85 97.9 102.29 93.18 100.17 91.33 99.13 88.46 97.92 83.74 95.66 81.13 94.41 79.02 93.26 74.3 91.39 70.83 89.69 69.58 89.05 64.85 86.49 61.35 84.97 60.13 84.39"/>
      <polygon class="cls-22" points="60.13 103.3 60.13 103.85 60.13 108.57 60.13 112.11 60.5 113.29 64.71 118.01 64.85 118.06 69.58 119.68 74.3 120.97 79.02 122.21 80.72 122.73 83.74 123.55 88.46 126.53 89.16 127.45 90.25 132.17 90.96 136.89 92.37 141.61 93.18 144.3 93.73 146.33 93.74 151.05 93.54 155.78 93.23 160.5 93.18 162.35 93.13 165.22 92.59 169.94 91.44 174.66 90.53 179.38 89.73 184.1 88.46 187.46 86.83 188.82 83.74 190.52 79.02 192.41 76.1 193.54 74.3 194.03 69.58 196.01 65.59 198.26 64.85 198.63 60.13 200.78 60.13 202.85 64.85 200.69 69.58 198.37 69.81 198.26 74.3 196.22 79.02 195.27 83.74 193.89 84.73 193.54 88.46 191.83 90.25 188.82 91.66 184.1 92.44 179.38 93.18 175.31 93.33 174.66 94.66 169.94 95.35 165.22 95.91 160.5 96.34 155.78 95.93 151.05 95.85 146.33 94.86 141.61 93.69 136.89 93.18 135.24 92.39 132.17 91.28 127.45 88.46 123.78 86.67 122.73 83.74 120.59 79.02 119.74 74.3 118.69 71.53 118.01 69.58 117.14 64.85 115.1 63.21 113.29 61.64 108.57 60.29 103.85 60.13 103.3"/>
      <polygon class="cls-22" points="116.78 212.13 112.06 212.32 107.34 212.26 102.62 211.56 99.5 212.42 97.9 213.03 93.52 217.15 93.18 217.47 88.46 221.68 88.21 221.87 83.74 224.33 79.63 226.59 79.02 226.96 74.3 230.31 73 231.31 69.58 233.63 64.85 235.09 60.13 231.45 60.13 236.03 60.13 238.03 64.85 237.21 69.58 236.11 69.75 236.03 74.3 232.84 76.74 231.31 79.02 229.66 83.74 226.81 84.11 226.59 88.46 224.1 91.51 221.87 93.18 220.37 96.62 217.15 97.9 215.94 102.62 213.59 107.34 214.22 112.06 214.83 116.78 214.76 120.91 217.15 121.5 217.46 126.22 220.03 129.22 221.87 130.94 222.92 135.67 225.16 137.96 226.59 140.39 228 143.98 231.31 145.11 232.16 149.8 236.03 149.83 236.05 154.55 240.66 154.63 240.75 158.94 245.47 159.27 246.68 160.37 250.19 159.27 251.9 157.77 254.91 156.35 259.63 156.03 264.35 156.11 269.07 158.51 269.07 158.43 264.35 158.53 259.63 159.27 257.06 160 254.91 163.08 250.19 161.25 245.47 159.27 243.19 157.05 240.75 154.55 238.11 152.41 236.03 149.83 233.24 147.28 231.31 145.11 229 142.35 226.59 140.39 224.95 135.67 222.49 134.24 221.87 130.94 220.32 126.22 217.74 125.13 217.15 121.5 214.7 117.39 212.42 116.78 212.13"/>
      <polygon class="cls-22" points="244.24 212.51 239.52 212.49 234.8 212.89 230.08 213.41 225.36 214.46 220.64 215.75 217.17 217.15 215.92 217.65 211.2 219.6 207.18 221.87 206.48 222.31 201.76 224.97 199.16 226.59 197.04 227.91 193.25 231.31 192.31 232.3 188.43 236.03 187.59 236.75 183.71 240.75 182.87 242.49 181.72 245.47 180.83 250.19 182.05 254.91 182.87 258.08 183.18 259.63 183.93 264.35 184.34 269.07 186.78 269.07 186.03 264.35 185.28 259.63 184.42 254.91 183.09 250.19 183.76 245.47 186.4 240.75 187.59 239.52 191.66 236.03 192.31 235.4 196.19 231.31 197.04 230.55 201.76 227.44 203.22 226.59 206.48 224.61 210.86 221.87 211.2 221.67 215.92 219.68 220.64 217.76 222.61 217.15 225.36 216.34 230.08 215.41 234.8 214.89 239.52 214.49 244.24 214.92 246.48 217.15 248.96 219.63 251.21 221.87 253.68 224.18 256.73 226.59 258.4 228.36 263.12 230.83 264.2 231.31 267.85 232.7 272.57 235.05 273.92 236.03 277.29 237.9 280.85 236.03 282.01 234.45 282.01 231.31 282.01 230.18 281.17 231.31 277.7 236.03 277.29 236.24 276.9 236.03 272.57 232.9 269.18 231.31 267.85 230.68 263.12 228.51 260 226.59 258.4 225.37 253.68 221.89 253.65 221.87 248.96 217.2 248.9 217.15 244.24 212.51"/>
      <polygon class="cls-22" points="277.29 258.89 273.3 259.63 272.57 259.81 267.85 261.32 263.13 263.48 261 264.35 258.4 265.41 253.68 267.31 249.69 269.07 253.68 269.07 254.74 269.07 258.4 267.56 263.13 265.65 265.75 264.35 267.85 263.37 272.57 262.05 277.29 260.78 282.01 259.75 282.01 259.63 282.01 257.7 277.29 258.89"/>
      <polygon class="cls-22" points="64.85 258.29 60.13 256.51 60.13 258.7 62.59 259.63 64.85 260.62 69.57 263.44 74.3 264.08 78.78 264.35 79.02 264.37 83.74 266.88 88.46 268.89 88.9 269.07 93.18 269.07 94.55 269.07 93.18 268.43 88.46 266.42 84.12 264.35 83.74 264.2 79.02 262.25 74.3 261.61 69.57 260.62 67.86 259.63 64.85 258.29"/>
      <polygon class="cls-9" points="64.85 88.43 60.13 86.77 60.13 89.25 61.7 89.69 64.85 90.71 69.57 92.93 72.7 94.41 74.3 95.47 79.02 97.98 82.42 99.13 83.74 99.85 88.46 102.3 91.1 103.85 93.18 106.02 97.9 107.65 100.14 108.57 102.62 109.75 107.34 111.21 112.06 112.13 116.02 113.29 116.78 113.65 121.5 115.34 126.22 117.41 128.73 118.01 130.94 118.66 135.67 120.04 140.39 121.51 143.91 122.73 145.11 123.28 149.83 125.11 154.55 126.86 156.2 127.45 159.27 128.91 163.99 131.13 166.67 132.17 168.71 133.11 173.43 135.54 176.28 136.89 178.15 137.85 182.87 140.47 185.12 141.61 187.59 142.99 192.31 145.68 193.5 146.33 197.03 148.55 200.98 151.05 201.76 151.63 206.48 155.06 207.39 155.78 211.2 158.77 213.3 160.5 215.92 162.65 219.33 165.22 220.64 166.32 225.35 169.94 225.36 169.94 230.08 174.38 230.32 174.66 234.8 179.27 234.91 179.38 239.52 182.89 240.82 184.1 244.24 187.32 245.84 188.82 248.96 191.77 250.93 193.54 253.68 195.64 257.32 198.26 258.4 199.11 263.13 202.75 263.47 202.98 267.85 205.72 271.7 207.7 272.57 208.13 277.29 210.85 279.63 212.42 282.01 214.01 282.01 212.42 282.01 211.71 277.29 208.58 275.8 207.7 272.57 205.49 268 202.98 267.85 202.89 263.13 199.59 261.39 198.26 258.4 196.29 254.63 193.54 253.68 192.73 249.37 188.82 248.96 188.44 244.35 184.1 244.24 183.99 239.52 179.6 239.23 179.38 234.8 175.28 234.2 174.66 230.08 169.94 230.08 169.94 225.36 165.24 225.34 165.22 220.64 161.61 219.18 160.5 215.92 157.88 213.36 155.78 211.2 154.17 207.31 151.05 206.48 150.43 201.76 147.1 200.66 146.33 197.03 143.95 193.07 141.61 192.31 141.17 187.59 138.42 185.04 136.89 182.87 135.76 178.15 133.43 175.86 132.17 173.43 131.04 168.71 129.03 165.4 127.45 163.99 126.84 159.27 124.99 154.55 123.09 153.63 122.73 149.83 121.37 145.11 119.69 140.39 118.04 140.27 118.01 135.67 116.84 130.94 115.62 126.22 114.48 123.71 113.29 121.5 112.32 116.78 110.93 112.06 109.63 108.06 108.57 107.34 108.38 102.62 106.89 97.9 104.94 95.75 103.85 93.18 102.65 88.46 99.95 87.04 99.13 83.74 97.57 79.02 95.54 76.97 94.41 74.3 93.27 69.57 90.99 67.18 89.69 64.85 88.43"/>
      <polygon class="cls-9" points="60.13 91.98 60.13 94.41 60.13 99.13 60.13 103.3 60.29 103.85 61.64 108.57 63.21 113.29 64.85 115.1 69.58 117.14 71.53 118.01 74.3 118.69 79.02 119.74 83.74 120.59 86.67 122.73 88.46 123.78 91.28 127.45 92.39 132.17 93.18 135.24 93.69 136.89 94.86 141.61 95.85 146.33 95.93 151.06 96.34 155.78 95.91 160.5 95.35 165.22 94.66 169.94 93.33 174.66 93.18 175.31 92.44 179.38 91.66 184.1 90.25 188.82 88.46 191.83 84.73 193.54 83.74 193.89 79.02 195.27 74.3 196.22 69.81 198.26 69.58 198.37 64.85 200.69 60.13 202.84 60.13 202.98 60.13 205.09 64.37 202.98 64.85 202.76 69.58 200.65 74.3 198.46 76.2 198.26 79.02 197.98 83.74 197.02 88.46 195.52 90.02 193.54 92.7 188.82 93.18 186.55 93.79 184.1 95.01 179.38 95.88 174.66 96.77 169.94 97.58 165.22 97.9 163.53 98.67 160.5 99.13 155.78 98.18 151.06 97.98 146.33 97.9 145.72 97.41 141.61 96.27 136.89 95 132.17 93.53 127.45 93.18 126.66 91.06 122.73 88.46 119.13 86.37 118.01 83.74 116.09 79.02 116.73 74.3 115.01 70.17 113.29 69.58 113.01 64.85 110.47 64.19 108.57 63.14 103.85 61.96 99.13 60.73 94.41 60.13 91.98"/>
      <polygon class="cls-9" points="248.96 212.17 244.24 208.26 239.52 209.82 234.8 210.35 230.08 210.84 226.05 212.42 225.36 212.59 220.64 213.74 215.92 215.18 212.14 217.15 211.2 217.53 206.48 219.65 202.6 221.87 201.76 222.33 197.03 225.1 195.27 226.59 192.31 229.19 188.88 231.31 187.59 232.52 184.58 236.03 182.87 237.81 180.9 240.75 179.52 245.47 178.59 250.19 179.32 254.91 180.26 259.63 181.58 264.35 181.63 269.07 182.87 269.07 184.34 269.07 183.93 264.35 183.18 259.63 182.87 258.08 182.05 254.91 180.83 250.19 181.72 245.47 182.87 242.49 183.71 240.75 187.59 236.75 188.43 236.03 192.31 232.3 193.25 231.31 197.03 227.91 199.16 226.59 201.76 224.97 206.48 222.31 207.18 221.87 211.2 219.6 215.92 217.65 217.17 217.15 220.64 215.76 225.36 214.46 230.08 213.41 234.8 212.89 239.52 212.48 244.24 212.51 248.9 217.15 248.96 217.2 253.65 221.87 253.68 221.89 258.4 225.37 260 226.59 263.12 228.51 267.85 230.68 269.18 231.31 272.57 232.9 276.9 236.03 277.29 236.24 277.7 236.03 281.16 231.31 282.01 230.18 282.01 226.59 282.01 225.91 281.43 226.59 277.97 231.31 277.29 232.23 275.15 231.31 272.57 230.76 267.85 228.56 263.86 226.59 263.12 226.06 258.4 222.5 257.54 221.87 254.27 217.15 253.68 216.61 249.24 212.42 248.96 212.17"/>
      <polygon class="cls-9" points="121.5 211.92 116.78 209.63 112.06 209.19 107.34 209.14 102.62 209.4 97.9 210.31 94.87 212.42 93.18 214 89.8 217.15 88.46 218.33 83.74 221.83 83.69 221.87 79.02 224.44 75.48 226.59 74.3 227.42 69.58 231.07 68.75 231.31 64.86 232.35 63.53 231.31 60.13 228.4 60.13 231.31 60.13 231.45 64.86 235.09 69.58 233.63 73 231.31 74.3 230.31 79.02 226.96 79.63 226.59 83.74 224.33 88.21 221.87 88.46 221.68 93.18 217.47 93.52 217.15 97.9 213.03 99.5 212.42 102.62 211.56 107.34 212.26 112.06 212.32 116.78 212.13 117.38 212.42 121.5 214.7 125.13 217.15 126.22 217.74 130.94 220.32 134.24 221.87 135.67 222.49 140.39 224.95 142.35 226.59 145.11 229 147.28 231.31 149.83 233.24 152.41 236.03 154.55 238.11 157.05 240.75 159.27 243.19 161.24 245.47 163.08 250.19 160 254.91 159.27 257.06 158.53 259.63 158.43 264.35 158.51 269.07 159.27 269.07 161.06 269.07 160.85 264.35 161.42 259.63 162.58 254.91 163.99 252.78 165.84 250.19 163.99 246.53 163.55 245.47 159.58 240.75 159.27 240.34 155.37 236.03 154.55 235.08 151.25 231.31 149.83 229.79 146.86 226.59 145.11 224.98 141.3 221.87 140.39 221.35 135.67 219.64 130.94 217.46 130.33 217.15 126.22 214.94 122.38 212.42 121.5 211.92"/>
      <polygon class="cls-9" points="60.13 258.7 60.13 259.63 60.13 260.9 64.85 263.14 66.81 264.35 69.58 266.26 74.3 266.7 79.02 267.44 82.45 269.07 83.74 269.07 88.46 269.07 88.9 269.07 88.46 268.89 83.74 266.88 79.02 264.37 78.78 264.35 74.3 264.08 69.58 263.44 64.85 260.62 62.59 259.63 60.13 258.7"/>
      <polygon class="cls-9" points="277.29 260.78 272.57 262.05 267.85 263.37 265.75 264.35 263.13 265.65 258.4 267.57 254.74 269.07 258.4 269.07 260.01 269.07 263.13 267.82 267.85 265.92 272.32 264.35 272.57 264.29 277.29 262.84 282.01 261.61 282.01 259.75 277.29 260.78"/>
      <path class="cls-14" d="M67.39,94.41l2.19.82,4.72,2.98,1.84.93,2.88,2.46,4.71,2.26v.04s.72,4.68.72,4.68l-.71.64-4.72,3.24-4.72-1.96-3.88-1.92-.84-.42-3.27-4.3-1.2-4.72-.25-.88-.88-3.84.88-.79,2.53.79ZM60.13,89.25v2.72l.6,2.43,1.22,4.72,1.19,4.72,1.04,4.72.67,1.9,4.72,2.54.6.28,4.12,1.73,4.72,1.71,4.72-.63,2.63,1.92,2.09,1.12,2.6,3.6,2.12,3.93.35.79,1.48,4.72,1.27,4.72,1.14,4.72.49,4.11.08.61.2,4.72.96,4.72-.47,4.72-.77,3.03-.32,1.69-.82,4.72-.89,4.72-.87,4.72-1.22,4.72-.61,2.45-.48,2.27-2.68,4.72-1.56,1.98-4.72,1.5-4.72.96-2.82.28-1.9.2-4.72,2.19-4.72,2.11-.48.22-4.24,2.11v2.26l4.72-1.49,4.59-2.88.13-.06,4.72-1.56,4.72-.73,4.72-.62,4.72-.8,1-.95,3.25-4.72.47-.85,2.12-3.87,1.38-4.72,1.22-4.44.11-.29.87-4.72,1.17-4.72.65-4.72.97-4.72.26-4.72-.92-4.72-.17-4.72-.57-4.72-.76-4.72-1.62-4.72h0s-.95-4.72-.95-4.72l-1.78-4.72.03-4.72,2.7-4.09,1.44-.63,3.28-.38,1.44.38,3.28,1.43,4.72,1.43,4.72,1.56,1.49.3,3.23.93,4.72,2.08,4.72,1.21,2.1.5,2.62,1.15,4.72,2.36,3.47,1.22,1.25.56,4.72,1.69,4.72,1.71,1.49.75,3.23,1.72,4.72,2.15,1.78.85,2.94,1.48,4.72,2.37,1.71.87,3.01,1.52,4.72,2.75.79.44,3.93,2.28,4.42,2.44.3.18,4.72,2.82,2.26,1.73,2.47,2.2,3.59,2.52,1.13.76,4.72,2.83,1.43,1.13,3.29,2.26,2.87,2.47,1.85,1.64,4.26,3.08.46.39,4.72,3.79.52.54,4.2,3.7,1.41,1.02,3.31,3.24,1.63,1.48,3.09,2.92,1.99,1.8,2.74,2.34,4.15,2.38.57.41,4.72,3.5,1.05.81,3.67,2.93,3.08,1.79,1.64,1.06,4.72,2.08,3.1,1.58,1.62,1.32,4.72,2.5v-2.24l-2.38-1.58-2.34-1.58-4.72-2.72-.87-.43-3.85-1.98-4.38-2.74-.34-.24-4.72-3.63-1.08-.85-3.64-2.62-2.75-2.1-1.97-1.78-3.13-2.94-1.59-1.5-3.42-3.22-1.3-1.21-4.61-3.51-.11-.11-4.48-4.62-.24-.28-4.72-4.44h0s-4.71-3.62-4.71-3.62l-1.3-1.1-3.42-2.57-2.62-2.15-2.1-1.72-3.8-3-.92-.72-4.72-3.42-.77-.58-3.95-2.51-3.54-2.21-1.19-.65-4.72-2.69-2.47-1.37-2.25-1.15-4.72-2.61-1.87-.96-2.85-1.36-4.72-2.43-2.04-.93-2.68-1.04-4.72-2.21-3.07-1.46-1.65-.59-4.72-1.75-4.72-1.83-1.2-.55-3.52-1.23-4.72-1.47-4.72-1.38-2.21-.65-2.51-.6-4.72-2.07-4.72-1.69-.76-.36-3.96-1.16-4.72-.92-4.72-1.46-2.48-1.18-2.24-.91-4.72-1.64-2.08-2.17-2.64-1.55-4.72-2.45-1.32-.73-3.4-1.14-4.72-2.51-1.6-1.07-3.12-1.48-4.72-2.22-3.15-1.02-1.57-.43Z"/>
      <polygon class="cls-14" points="248.96 206.48 244.24 203.44 239.52 206.14 234.8 207.6 231.48 207.7 230.08 207.73 225.36 209.08 220.64 210.76 216.51 212.42 215.92 212.56 211.2 214.09 206.48 216.77 205.87 217.14 201.76 219.08 197.48 221.87 197.03 222.12 192.31 225.81 190.56 226.59 187.59 227.84 182.9 231.31 182.87 231.34 180.4 236.03 178.15 240.45 177.88 240.75 173.91 245.47 173.43 246.09 169.18 250.19 168.71 250.39 168.63 250.19 167.04 245.47 163.99 241.63 163.3 240.75 159.89 236.03 159.27 235.29 155.82 231.31 154.55 229.99 151.36 226.59 149.83 225.15 146.24 221.87 145.11 220.95 140.39 218.5 136.72 217.14 135.67 216.55 130.94 213.37 128.16 212.42 126.22 211.87 121.5 209.26 118.11 207.7 116.78 207.05 112.06 205.59 107.34 206.03 102.62 206.67 97.9 207.51 97.41 207.7 93.18 208.83 90.44 212.42 88.46 214.23 85 217.14 83.74 218.04 79.18 221.87 79.02 221.96 74.3 224.71 71.6 226.59 69.58 228.15 64.85 229.61 61.36 226.59 60.13 225.43 60.13 226.59 60.13 228.4 63.53 231.31 64.85 232.35 68.75 231.31 69.58 231.07 74.3 227.42 75.48 226.59 79.02 224.44 83.69 221.87 83.74 221.83 88.46 218.33 89.8 217.14 93.18 214 94.87 212.42 97.9 210.31 102.62 209.4 107.34 209.14 112.06 209.19 116.78 209.63 121.5 211.92 122.38 212.42 126.22 214.94 130.33 217.14 130.94 217.46 135.67 219.64 140.39 221.35 141.3 221.87 145.11 224.98 146.86 226.59 149.83 229.79 151.25 231.31 154.55 235.08 155.37 236.03 159.27 240.34 159.58 240.75 163.55 245.47 163.99 246.53 165.84 250.19 163.99 252.78 162.58 254.91 161.42 259.63 160.85 264.35 161.06 269.07 163.69 269.07 163.29 264.35 163.99 261.65 168.71 261.49 173.43 261.84 178.15 262.01 178.96 264.35 178.48 269.07 181.63 269.07 181.58 264.35 180.26 259.63 179.32 254.91 178.59 250.19 179.52 245.47 180.9 240.75 182.87 237.81 184.58 236.03 187.59 232.52 188.88 231.31 192.31 229.19 195.27 226.59 197.03 225.1 201.76 222.33 202.6 221.87 206.48 219.65 211.2 217.53 212.14 217.14 215.92 215.17 220.64 213.74 225.36 212.59 226.05 212.42 230.08 210.84 234.8 210.35 239.52 209.83 244.24 208.26 248.96 212.17 249.24 212.42 253.68 216.61 254.27 217.14 257.54 221.87 258.4 222.5 263.12 226.06 263.86 226.59 267.85 228.56 272.57 230.76 275.15 231.31 277.29 232.24 277.97 231.31 281.43 226.59 282.01 225.91 282.01 221.87 282.01 221.32 281.76 221.87 277.78 226.59 277.29 227.28 272.57 228.62 268.17 226.59 267.85 226.33 263.12 222.98 261.63 221.87 259.81 217.14 258.4 214.32 256.25 212.42 253.68 210.6 250.57 207.7 248.96 206.48"/>
      <polygon class="cls-14" points="277.29 262.85 272.57 264.29 272.32 264.35 267.85 265.92 263.13 267.82 260.01 269.07 263.13 269.07 267.34 269.07 267.85 268.92 272.57 267.51 277.29 265.4 279.01 264.35 282.01 263.48 282.01 261.61 277.29 262.85"/>
      <polygon class="cls-14" points="64.85 263.14 60.13 260.9 60.13 263.09 62.61 264.35 64.85 265.82 69.56 269.07 69.57 269.07 74.3 269.07 79.02 269.07 82.45 269.07 79.02 267.44 74.3 266.69 69.57 266.26 66.81 264.35 64.85 263.14"/>
      <path class="cls-17" d="M76.15,103.85l-1.86,1.69-3.64-1.69,3.64-1.58,1.86,1.58ZM70.36,99.13l-.79,2.71-.52-2.71.52-.46.79.46ZM64.85,93.61l-.89.79.89,3.84.25.88,1.2,4.72,3.27,4.3.84.42,3.88,1.92,4.72,1.96,4.72-3.23.71-.64-.71-4.68v-.04s-4.72-2.26-4.72-2.26l-2.88-2.46-1.84-.93-4.72-2.98-2.19-.82-2.53-.79Z"/>
      <path class="cls-17" d="M268.29,212.43l2.1,4.72,2.18,2.31,2.77,2.42-2.77,2.92-4.72-2.22-1.07-.7-1.08-4.72-2.58-1.6-1.02-3.12,1.02-1.52,4.72,1.36.45.15ZM258.67,207.7l-.26.16-.22-.16.22-.16.26.16ZM113.72,122.73l3.06,1.16,4.72,1.08,4.72,1.75,1.79.73,2.93,1.11,4.72,1.88,3.73,1.73.99.47,4.72,2.25,4.72,1.41,2.08.59,2.64.91,4.72,2.42,3.36,1.39,1.36.78,4.72,2.8,2.74,1.14,1.98,1.04,4.72,2.35,3.02,1.32,1.7.94,4.72,3.03,1.5.75,3.22,2.25,4.21,2.48.51.31,4.72,3.91.76.5,3.96,2.84,3.14,1.88,1.58,1.43,4.72,2.94.43.35,4.29,4.17.75.55,3.97,4.27.55.45,4.17,2.86,2.08,1.86,2.64,4.11,4.72.38.24.22,4.48,4.35.46.37-.46.28-4.72.05-4.72,4.3-.09.09-4.63.91-4.72,1.07-4.72.98-4.03,1.76-.69.29-4.72,1.89-4.72,2.46-.12.08-4.6,2.16-4.06,2.56-.66.33-4.72,2.91-1.83,1.48-2.89,1.32-4.72,3.03-.42.38-4.3,4.49-.25.23-3.46,4.72-1.01,1.12-4.72,1.93-3.46-3.06-1.26-.77-3.12-3.96-1.6-1.58-3.01-3.14-1.71-1.63-3.37-3.09-1.35-1.19-4.72-3.47-.14-.06-4.58-2.72-4.16-2-.56-.32-4.72-2.6-4.72-1.22-1.33-.58-3.39-1.9-4.72-1.59-2.62-1.23-2.1-1.31-4.72,1.16-4.72-1.49-4.72-2.03-1.62-1.04,1.07-4.72.55-4.19.12-.53,2.65-4.72,1.35-4.72.6-1.9,1.15-2.82,1.11-4.72.1-4.72.55-4.72.11-4.72-.65-4.72.21-4.72-.66-4.72.37-4.72-.07-4.72-2.22-4.12-.32-.6-.67-4.72,1-.85,4.72-.1,4.72.32,1.66.63ZM102.62,112.91l-3.28.38-1.44.63-2.7,4.09-.03,4.72,1.78,4.72.95,4.71h0s1.62,4.73,1.62,4.73l.76,4.72.57,4.72.17,4.72.92,4.72-.26,4.72-.97,4.72-.65,4.72-1.17,4.72-.87,4.72-.11.29-1.22,4.44-1.38,4.72-2.12,3.87-.47.85-3.25,4.72-1,.95-4.72.8-4.72.62-4.72.73-4.72,1.56-.13.06-4.59,2.88-4.72,1.5v4.29l4.72-1.91,4.72-2.03h.02s4.7-2.09,4.7-2.09l4.72-1.27,3.88-1.37.84-.07.44.07,2.4,4.72-1.63,4.72-1.2,1-3.93,3.72-.79.65-4.35,4.07-.37.22-4.72,2.77-3.86,1.73-.86.28-.33-.28-4.39-4.13v2.97l1.23,1.16,3.49,3.02,4.72-1.46,2.03-1.57,2.69-1.87,4.72-2.76.16-.09,4.56-3.83,1.26-.89,3.46-2.91,1.98-1.81,2.74-3.59,4.23-1.13.49-.2,4.72-.84,4.72-.64,4.72-.44,4.72,1.46,1.33.65,3.39,1.56,4.72,2.6,1.94.56,2.78.95,4.72,3.18,1.05.6,3.67,1.36,4.72,2.44,1.13.92,3.59,3.28,1.54,1.44,3.18,3.41,1.27,1.32,3.45,3.98.62.74,3.41,4.72.69.88,3.05,3.84,1.58,4.72.08.2.47-.2,4.25-4.1.48-.62,3.97-4.72.27-.3,2.24-4.42,2.48-4.69.02-.03,4.7-3.46,2.96-1.26,1.76-.77,4.72-3.69.45-.26,4.27-2.78,4.11-1.94.61-.37,4.72-2.68,4.72-1.54.59-.13,4.13-1.66,4.72-1.69,4.72-1.35,1.4-.03,3.32-.11,4.72-1.45,4.72-2.7,4.72,3.04,1.61,1.22,3.11,2.9,2.57,1.83,2.15,1.89,1.41,2.83,1.82,4.72,1.5,1.11,4.72,3.35.32.26,4.4,2.03,4.72-1.34.5-.7,3.97-4.72.25-.55v-5.07l-4.72-2.5-1.62-1.32-3.1-1.58-4.72-2.08-1.64-1.06-3.08-1.79-3.67-2.93-1.05-.81-4.72-3.5-.57-.41-4.15-2.38-2.74-2.34-1.99-1.8-3.09-2.92-1.63-1.48-3.31-3.24-1.41-1.02-4.2-3.7-.52-.54-4.72-3.79-.46-.39-4.26-3.08-1.85-1.64-2.87-2.47-3.29-2.26-1.43-1.13-4.72-2.83-1.13-.76-3.59-2.52-2.47-2.2-2.25-1.73-4.72-2.82-.31-.18-4.41-2.44-3.93-2.28-.79-.45-4.72-2.75-3.01-1.52-1.71-.87-4.72-2.37-2.94-1.48-1.78-.85-4.72-2.15-3.23-1.72-1.49-.75-4.72-1.71-4.72-1.69-1.25-.56-3.47-1.22-4.72-2.36-2.62-1.15-2.1-.5-4.72-1.21-4.72-2.08-3.23-.93-1.49-.3-4.72-1.56-4.72-1.43-3.28-1.43-1.44-.38Z"/>
      <polygon class="cls-17" points="279.01 264.35 277.29 265.4 272.57 267.51 267.85 268.92 267.34 269.07 267.85 269.07 272.57 269.07 277.29 269.07 282.01 264.35 282.01 263.48 279.01 264.35"/>
      <polygon class="cls-17" points="178.15 262.01 173.43 261.84 168.71 261.49 163.99 261.65 163.29 264.35 163.69 269.07 163.99 269.07 168.71 269.07 170.16 269.07 173.43 267.11 174.91 269.07 178.15 269.07 178.48 269.07 178.96 264.35 178.15 262.01"/>
      <polygon class="cls-17" points="60.13 263.09 60.13 264.35 63.61 267.83 64.85 268.64 65.48 269.07 69.56 269.07 64.85 265.82 62.61 264.35 60.13 263.09"/>
      <polygon class="cls-15" points="69.58 98.67 69.05 99.13 69.58 101.84 70.36 99.13 69.58 98.67"/>
      <polygon class="cls-15" points="74.3 102.27 70.65 103.85 74.3 105.54 76.15 103.85 74.3 102.27"/>
      <path class="cls-15" d="M123.46,136.89l2.77.11,4.72,1.67,4.72,1.79,3.41,1.15,1.31.58,4.72,2.11,3.63,2.03,1.09.63,4.72,2.08,4.72,2h.02s4.7,3.27,4.7,3.27l3.7,1.47,1.02.91,4.72,3.52.7.29,4.02,1.54,4.72,2.45,1.61.73,3.11,2.18,3.21,2.54,1.51,1.42,4.54,3.3.18.11,4.72,2.54,4.72,1.98.11.1,4.61,4.2.52.52,3.92,4.72.28.3,2.96,4.42-2.96,3.44-2.75,1.28-1.97.87-4.72,1.58-4.72,1.08-1.25,1.19-2.96,4.72-.51.44-4.72,2.57-1.87,1.71-2.85,1.85-4.55,2.87-.17.22-4.72,3.59-1.09.91-3.63,2.92-4.72,1.29-4.72-3.19-1.43-1.02-3.29-2.43-3.91-2.29-.81-.67-4.72-3.73-.38-.32-4.35-3.55-2.08-1.17-2.64-1.58-4.72-2.1-1.56-1.04-3.16-2-4.72-1.74-3.06-.98-1.66-.74-4.72-.39-4.72-1.21-3.72-2.38,1.4-4.72.81-4.72,1.07-4.72.44-3.28.21-1.44.72-4.72.02-4.72,1.07-4.72.15-4.72.55-4.72.62-4.72-.09-4.72,1.16-4.72.33-.3,4.72.22,1.95.08ZM112.06,122.1l-4.72-.32-4.72.1-1,.85.67,4.72.32.6,2.22,4.12.06,4.72-.37,4.72.66,4.72-.21,4.72.65,4.72-.11,4.72-.55,4.72-.1,4.72-1.11,4.72-1.15,2.82-.6,1.9-1.35,4.72-2.65,4.72-.12.53-.55,4.19-1.07,4.72,1.62,1.04,4.72,2.03,4.72,1.49,4.72-1.16,2.1,1.31,2.62,1.23,4.72,1.59,3.39,1.89,1.33.58,4.72,1.22,4.72,2.6.56.32,4.16,2,4.58,2.72.14.06,4.72,3.47,1.35,1.19,3.37,3.09,1.71,1.63,3.01,3.14,1.6,1.58,3.12,3.96,1.26.76,3.46,3.06,4.72-1.93,1.01-1.12,3.46-4.72.25-.23,4.3-4.49.42-.38,4.72-3.03,2.89-1.32,1.83-1.48,4.72-2.91.66-.33,4.06-2.56,4.6-2.16.12-.08,4.72-2.46,4.72-1.89.69-.29,4.03-1.76,4.72-.98,4.72-1.07,4.63-.91.09-.09,4.72-4.3,4.72-.05.46-.28-.46-.37-4.48-4.35-.24-.22-4.72-.38-2.64-4.11-2.08-1.86-4.17-2.86-.55-.45-3.98-4.27-.75-.55-4.29-4.17-.43-.35-4.72-2.94-1.58-1.43-3.14-1.88-3.96-2.84-.76-.5-4.72-3.91-.51-.31-4.21-2.48-3.22-2.25-1.5-.75-4.72-3.03-1.7-.94-3.02-1.32-4.72-2.35-1.98-1.04-2.74-1.14-4.72-2.8-1.36-.78-3.36-1.39-4.72-2.42-2.64-.91-2.08-.59-4.72-1.41-4.72-2.25-.99-.47-3.73-1.73-4.72-1.88-2.93-1.11-1.79-.73-4.72-1.75-4.72-1.08-3.06-1.16-1.66-.63Z"/>
      <path class="cls-15" d="M65.94,221.87l-1.09.3-.33-.3.33-3.8,1.09,3.8ZM83.74,202.91l-.84.07-3.88,1.37-4.72,1.27-4.7,2.08h-.02s-4.72,2.03-4.72,2.03l-4.72,1.91v10.82l4.39,4.13.33.28.86-.28,3.86-1.73,4.72-2.77.37-.22,4.35-4.07.79-.65,3.93-3.72,1.2-1,1.63-4.72-2.4-4.72-.44-.07Z"/>
      <polygon class="cls-15" points="258.4 207.54 258.18 207.7 258.4 207.86 258.67 207.7 258.4 207.54"/>
      <polygon class="cls-15" points="267.85 212.27 263.13 210.91 262.1 212.42 263.13 215.55 265.7 217.15 266.78 221.87 267.85 222.57 272.57 224.79 275.34 221.87 272.57 219.45 270.39 217.15 268.29 212.42 267.85 212.27"/>
      <polygon class="cls-15" points="173.43 267.11 170.16 269.07 173.43 269.07 174.91 269.07 173.43 267.11"/>
      <polygon class="cls-15" points="64.85 268.64 63.61 267.83 64.85 269.07 65.48 269.07 64.85 268.64"/>
      <polygon class="cls-11" points="121.5 136.82 116.78 136.6 116.45 136.89 115.3 141.61 115.38 146.33 114.77 151.06 114.22 155.78 114.07 160.5 113 165.22 112.99 169.94 112.27 174.66 112.06 176.1 111.62 179.38 110.55 184.1 109.74 188.82 108.34 193.54 112.06 195.92 116.78 197.13 121.5 197.53 123.16 198.26 126.22 199.24 130.94 200.98 134.11 202.98 135.67 204.02 140.39 206.12 143.03 207.7 145.11 208.87 149.45 212.42 149.83 212.74 154.55 216.48 155.36 217.15 159.27 219.44 162.56 221.87 163.99 222.88 168.71 226.08 173.43 224.79 177.06 221.87 178.15 220.96 182.87 217.37 183.04 217.15 187.59 214.28 190.44 212.42 192.31 210.71 197.03 208.14 197.54 207.7 200.5 202.98 201.76 201.79 206.48 200.71 211.2 199.13 213.17 198.26 215.92 196.98 218.87 193.54 215.92 189.12 215.63 188.82 211.72 184.1 211.2 183.58 206.59 179.38 206.48 179.28 201.76 177.31 197.03 174.77 196.85 174.66 192.31 171.36 190.81 169.94 187.59 167.4 184.48 165.22 182.87 164.49 178.15 162.04 174.13 160.5 173.43 160.2 168.71 156.68 167.69 155.78 163.99 154.31 159.29 151.06 159.27 151.04 154.55 149.04 149.83 146.96 148.74 146.33 145.11 144.3 140.39 142.19 139.08 141.61 135.67 140.46 130.94 138.67 126.22 137.01 123.46 136.89 121.5 136.82"/>
      <polygon class="cls-11" points="64.85 218.07 64.53 221.87 64.85 222.16 65.94 221.87 64.85 218.07"/>
      <polyline class="cls-2" points="60.13 134 64.79 132.17 64.85 132.16 64.88 132.17 69.58 134.78 74.3 136.06 74.66 136.89 75.97 141.61 77.59 146.34 79.02 149.58 79.65 151.06 81.17 155.78 80.71 160.5 80.55 165.22 80.64 169.94 79.55 174.66 79.02 175.38 75.88 179.38 74.3 180.39 69.58 182.18 64.85 183.77 60.13 183.05"/>
      <polyline class="cls-2" points="282.01 194.32 277.29 193.67 277.16 193.54 272.75 188.82 272.57 188.69 269.53 184.1 267.85 182.64 265.26 179.38 263.12 176.79 261.17 174.66 258.4 171.89 256.13 169.94 253.68 165.37 253.58 165.22 248.96 160.69 248.77 160.5 244.76 155.78 244.24 155.17 241.01 151.06 239.52 149.81 237.42 146.33 234.8 143.48 232.3 141.61 230.08 137.34 229.82 136.89 225.36 132.22 225.26 132.17 220.64 129.67 216.62 127.45 215.92 127.05 211.2 124.04 209.15 122.73 206.48 120.67 203.33 118.01 201.75 116.93 197.03 115.08 192.31 113.73 191.3 113.29 187.59 110.96 182.87 108.77 182.27 108.57 178.15 107.03 173.43 104.99 170.82 103.85 168.71 103.08 163.99 102.04 159.27 100.69 154.55 99.4 153.65 99.13 149.83 97.81 145.11 97.22 140.39 96.25 135.67 95.42 131.9 94.41 130.94 93.59 126.22 92.41 122.07 94.41 121.5 94.52 121.12 94.41 116.78 92.63 112.06 92.33 107.34 91.44 102.62 90.37 101.47 89.69 97.9 86.7 95.94 84.97 94.35 80.24 93.18 78.84 88.46 78.48 83.74 78.12 79.02 76.07 74.3 78.65 69.58 78.49 64.85 77.08 63.82 75.52 63.48 70.8 63.18 66.08 62.75 61.36 62.37 56.64 63.86 51.92 64.85 51.04 69.58 50.16 74.3 48.66 77.23 47.2"/>
      <polyline class="cls-2" points="201.12 269.07 201.76 266.12 203.5 264.35 201.84 259.63 201.76 259.57 197.94 254.91 197.83 250.19 198.32 245.47 201.76 241.84 203.48 240.75 206.48 238.19 211.2 236.06 211.23 236.03 215.92 232.33 217.63 231.31 220.64 230.39 225.36 231.12 230.08 229.36 233.16 226.59 234.8 226.07 235.92 226.59 239.52 229.61 243.47 231.31 244.24 231.91 248.96 235.02 249.81 236.03 253.68 239.63 255.66 240.75 258.4 245.3 258.51 245.47 263.12 249.29 264.43 250.19 263.12 250.64 258.4 252.44 253.68 253.07 248.96 253.42 246.76 254.91 244.24 255.86 239.52 258.29 236.79 259.63 234.8 260.72 230.08 262.32 226.82 264.35 225.36 265.4 220.64 268.99 220.55 269.07"/>
      <polyline class="cls-2" points="132.23 269.07 130.94 268.04 126.22 265.73 121.5 264.5 120.71 264.35 116.78 263.23 112.06 260.95 108.32 259.63 107.34 259.11 102.62 256.93 97.9 255.24 95.71 254.91 93.18 254.4 88.46 253.81 83.74 252.39 79.02 251.3 74.71 250.19 78.53 245.47 79.02 245.22 83.74 241.21 85.4 240.75 88.46 239.98 93.18 238.27 97.9 236.88 98.67 236.03 102.62 231.44 102.75 231.31 107.34 226.81 107.75 226.59 112.06 226.15 114.16 226.59 116.78 228.72 121.05 231.31 121.5 231.53 126.22 233.14 129.57 236.03 130.94 237.64 133.28 240.75 135.67 242.66 140.39 244 142.45 245.47 143.31 250.19 143.01 254.91 142.4 259.63 141.75 264.35 141.91 269.07"/>
      <line class="cls-2" x1="60.13" y1="49.87" x2="63.39" y2="47.2"/>
      <polyline class="cls-2" points="60.13 129.87 64.85 127.66 69.58 130.35 74.3 130.87 77.34 132.17 78.06 136.89 79.02 139.21 80.07 141.61 83.25 146.33 83.74 147.41 84.54 151.06 85.05 155.78 84.94 160.5 84.57 165.22 84.32 169.94 84.01 174.66 83.74 175.47 80.69 179.38 79.02 180.63 74.3 183.69 73.59 184.1 69.58 186.18 65.18 188.82 64.85 188.98 60.13 191.07"/>
      <polyline class="cls-2" points="282.01 198.4 281.64 198.26 277.29 196.57 274.27 193.54 272.57 191.77 268.77 188.82 267.85 187.7 264.41 184.1 263.12 182.55 260.36 179.38 258.4 177.28 255.26 174.66 253.68 173.28 249.19 169.94 248.96 169.63 245.86 165.22 244.24 163.59 241.76 160.5 239.52 158.12 237.24 155.78 234.8 152.6 233.37 151.06 230.08 146.77 229.64 146.33 225.36 143.45 223.37 141.61 220.64 139.33 218.08 136.89 215.92 134.88 212 132.17 211.2 131.49 206.48 127.8 205.85 127.45 201.75 125.16 197.03 122.79 196.91 122.73 192.31 120.38 188.28 118.01 187.59 117.65 182.87 115.61 178.15 113.53 177.57 113.29 173.43 111.51 168.71 110.25 164.72 108.57 163.99 108.15 159.27 105.61 154.55 104.79 150.66 103.85 149.83 103.59 145.11 102.62 140.39 100.59 135.67 99.41 130.94 99.75 126.22 100.08 123.05 99.13 121.5 98.51 116.78 96.88 112.06 97.07 107.34 95.98 104.08 94.41 102.62 93.54 97.9 90.73 93.18 89.99 92.45 89.69 88.46 85.13 87.81 84.96 83.74 84.09 79.18 80.24 79.02 80.14 78.85 80.24 74.3 82.43 69.58 81.39 66.51 80.24 64.85 79.46 62.24 75.52 61.53 70.8 60.87 66.08 60.13 62.33"/>
      <polyline class="cls-2" points="197.7 269.07 197.03 267.95 195.23 264.35 194.37 259.63 193.55 254.91 193.6 250.19 193.74 245.47 197.03 241.26 197.52 240.75 201.76 237.94 203.77 236.03 206.48 234.05 210.23 231.31 211.2 230.69 215.92 228.68 220.62 226.59 220.64 226.58 225.36 226.54 230.08 224.23 234.8 223.1 239.52 224.93 242.21 226.59 244.24 227.84 248.96 230.82 249.39 231.31 253.45 236.03 253.68 236.25 258.4 239.14 261.66 240.75 263.13 243.04 267.85 243.7 272.57 243.34 277.29 244.42 281.07 245.47 277.65 250.19 277.29 250.4 275.18 250.19 272.57 249.71 271.88 250.19 267.85 251.56 263.13 253.17 260.3 254.91 258.4 256.16 253.68 257.59 248.96 258.92 244.24 259.6 244.18 259.63 239.52 262.74 237.03 264.35 234.8 265.81 230.08 266.8 227.2 269.07"/>
      <polyline class="cls-2" points="122.93 269.07 121.5 268.47 116.78 267.19 112.06 265.38 108.82 264.35 107.34 263.9 102.62 262.28 97.9 260.36 93.18 259.83 92.69 259.63 88.46 257.27 83.74 255.79 81.79 254.91 79.02 253.58 74.3 252.45 69.58 251.02 67.23 250.19 64.85 248.18 64.19 245.47 64.85 244.56 69.58 243.37 74.29 240.75 74.3 240.75 79.02 239.36 83.74 237.21 85.17 236.03 88.46 233.96 91.97 231.31 93.18 230.5 97.9 226.7 98.03 226.59 102.62 223.83 107.34 221.89 112.06 223.47 116.78 224.69 121.5 226.15 122.19 226.59 126.22 229.61 129.44 231.31 130.94 232.69 135.67 235.53 136.88 236.03 140.39 238.55 142.49 240.75 145.11 242.84 148.08 245.47 149.75 250.19 148.63 254.91 147.38 259.63 146.78 264.35 145.99 269.07"/>
      <polyline class="cls-2" points="60.13 126.99 64.85 124.93 69.58 126.81 71.66 127.45 74.3 128.27 79.02 129.73 81.48 132.17 81.42 136.89 83.66 141.61 83.74 141.73 86.77 146.33 87.24 151.06 87.14 155.78 87.18 160.5 87.17 165.22 86.46 169.94 85.87 174.66 84.33 179.38 83.74 180.35 79.02 183.79 78.54 184.1 74.3 186.46 70.06 188.82 69.58 189.05 64.85 191.43 61.33 193.54 60.13 194.21"/>
      <polyline class="cls-2" points="282.01 201.16 277.29 199.27 276.17 198.26 272.57 194.65 270.86 193.54 267.85 191.24 264.94 188.82 263.12 186.93 259.94 184.1 258.4 182.35 255.5 179.38 253.68 177.83 249.69 174.66 248.96 174.08 245.4 169.94 244.24 168.54 241.5 165.22 239.52 162.93 237.25 160.5 234.8 158 232.54 155.78 230.08 153.2 227.57 151.06 225.36 148.86 222.42 146.33 220.64 144.68 217.43 141.61 215.92 140.18 211.35 136.89 211.2 136.78 206.48 133.49 204.5 132.17 201.75 130.48 197.03 128.14 195.93 127.45 192.31 125.25 188.08 122.73 187.59 122.4 182.87 119.83 178.61 118.01 178.15 117.81 173.43 115.78 168.71 114.36 165.78 113.29 163.99 112.56 159.27 110.37 154.55 109.21 150.03 108.57 149.83 108.54 145.11 106.97 140.39 104.56 137.57 103.85 135.67 103.37 130.94 103.21 126.22 103.09 121.5 101.86 116.78 100.36 112.06 100 109.14 99.13 107.34 98.55 102.62 96.38 98.75 94.41 97.9 93.9 93.18 92.42 88.46 90.74 86.1 89.69 83.74 88.41 79.86 84.96 79.02 84.22 76.9 84.96 74.3 85.43 73.34 84.96 69.58 83.27 64.85 81.34 62.99 80.24 60.65 75.52 60.13 73.02"/>
      <polyline class="cls-2" points="282.01 250.47 277.29 253.15 272.57 253.05 267.85 254.09 265.44 254.91 263.12 255.86 258.4 258.85 256.74 259.63 253.68 260.78 248.96 262.08 244.24 262.68 242.05 264.35 239.52 266.29 235.82 269.07"/>
      <polyline class="cls-2" points="194.71 269.07 192.31 264.36 192.31 264.35 191.57 259.63 190.88 254.91 190.64 250.19 190.38 245.47 192.31 243.25 194.44 240.75 197.03 238.71 200.5 236.03 201.75 234.81 206.48 231.45 206.67 231.31 211.2 228.41 214.59 226.59 215.92 225.93 220.64 224.16 225.31 221.87 225.36 221.85 230.08 221.25 234.8 220.74 239.52 221.43 240.55 221.87 244.24 224.13 248.1 226.59 248.96 227.13 252.62 231.31 253.68 232.54 258.14 236.03 258.4 236.19 263.12 238.27 267.85 240.42 272.28 240.75 272.57 240.76 277.29 242.81 282.01 243.8"/>
      <polyline class="cls-2" points="109.45 269.07 107.34 268.26 102.62 265.99 98.62 264.35 97.9 263.97 93.18 261.92 88.46 259.97 87.63 259.63 83.74 257.94 79.02 255.82 74.66 254.91 74.3 254.83 69.58 253.37 64.85 251.63 63.12 250.19 62.82 245.47 64.85 242.7 69.58 240.87 69.8 240.75 74.3 238.96 79.02 236.64 80.19 236.03 83.74 234.32 88.28 231.31 88.46 231.19 93.18 228.06 94.97 226.59 97.9 224.19 100.84 221.87 102.62 220.3 107.34 219.95 112.06 221.1 115.29 221.87 116.78 222.31 121.5 224.19 125.25 226.59 126.22 227.32 130.94 229.8 133.79 231.31 135.67 232.58 140.39 234.93 141.85 236.03 145.11 239.37 146.42 240.75 149.83 243.89 151.49 245.47 152.63 250.19 151.39 254.91 150.2 259.63 149.83 261.51 149.17 264.35 148.87 269.07"/>
      <polyline class="cls-2" points="60.13 124.61 64.03 122.73 64.85 122.37 65.94 122.73 69.58 124.2 74.3 125.75 79.02 126.72 81.76 127.45 83.74 129.39 84.8 132.17 84.78 136.89 87.24 141.61 88.46 143.54 89.5 146.33 89.59 151.06 89.24 155.78 89.29 160.5 89.4 165.22 88.6 169.94 88.46 170.64 87.73 174.66 86.48 179.38 83.74 183.84 83.38 184.1 79.02 186.54 74.92 188.82 74.3 189.14 69.58 191.35 65.46 193.54 64.85 193.88 60.13 196.48"/>
      <polyline class="cls-2" points="282.01 203.92 280.15 202.98 277.29 201.7 273.47 198.26 272.57 197.36 267.85 194.31 266.69 193.54 263.12 190.62 260.84 188.82 258.4 186.64 255.45 184.1 253.68 182.3 250.67 179.38 248.96 177.99 245.74 174.66 244.24 172.91 241.72 169.94 239.52 167.26 237.79 165.22 234.8 162.03 233.22 160.5 230.08 157.4 228.28 155.78 225.36 153.24 222.72 151.06 220.64 149.22 217 146.33 215.92 145.29 211.2 141.84 210.88 141.61 206.48 138.38 204.25 136.89 201.75 135.09 197.03 132.27 196.88 132.17 192.31 129.24 188.86 127.45 187.59 126.74 182.87 124.05 179.87 122.73 178.15 122 173.43 119.96 168.71 118.2 168.17 118.01 163.99 116.43 159.27 114.79 154.55 113.36 154.34 113.29 149.83 111.77 145.11 110.36 140.44 108.57 140.39 108.54 135.67 107.32 130.94 106.68 126.22 105.87 121.5 104.75 117.28 103.85 116.78 103.7 112.06 102.41 107.34 101 102.66 99.13 102.62 99.11 97.9 96.83 93.18 94.9 90.11 94.41 88.46 94.08 83.74 91.28 80.59 89.69 79.02 88.29 74.3 87.46 69.58 85.17 69.2 84.97 64.85 82.98 60.22 80.24 60.13 80.05"/>
      <polyline class="cls-2" points="282.01 253.18 278.99 254.91 277.29 255.52 272.57 255.74 267.85 256.63 263.12 258.92 261.96 259.63 258.4 261.14 253.68 262.93 250.05 264.35 248.96 264.81 244.24 265.93 240.02 269.07"/>
      <polyline class="cls-2" points="191.88 269.07 190.22 264.35 189.47 259.63 188.78 254.91 188.18 250.19 187.59 246.33 187.49 245.47 187.59 245.31 191.64 240.75 192.31 240.16 197.03 236.46 197.59 236.03 201.76 232 202.73 231.31 206.48 229.17 210.49 226.59 211.2 226.14 215.92 223.82 220.38 221.87 220.64 221.76 225.36 220.02 230.08 219.33 234.8 218.83 239.52 218.87 244.24 220.62 245.49 221.87 248.96 224.5 251.2 226.59 253.68 229.35 255.53 231.31 258.4 233.79 263.12 235.32 265.47 236.03 267.84 237.09 272.57 238.9 276.25 240.75 277.29 241.2 282.01 241.8"/>
      <polyline class="cls-2" points="103.19 269.07 102.62 268.76 97.9 266.28 93.9 264.35 93.18 264.01 88.46 261.99 83.74 260.08 82.69 259.63 79.02 257.98 74.3 257.02 69.58 255.72 67.57 254.91 64.85 253.87 60.41 250.19 61.44 245.47 64.85 240.83 65.06 240.75 69.58 239.26 74.3 237.17 76.43 236.03 79.02 234.34 83.74 231.79 84.46 231.31 88.46 228.83 91.78 226.59 93.18 225.59 97.75 221.87 97.9 221.73 102.62 217.6 107.34 218.03 112.06 219.19 116.78 219.86 120.62 221.87 121.5 222.23 126.22 224.88 129.21 226.59 130.95 227.5 135.67 229.99 137.83 231.31 140.39 232.77 144.73 236.03 145.11 236.42 149.23 240.75 149.83 241.3 154.23 245.47 154.55 246.71 155.35 250.19 154.55 252.13 153.55 254.91 152.2 259.63 151.45 264.35 151.39 269.07"/>
      <polyline class="cls-2" points="60.13 120.85 64.85 120.21 69.58 121.8 72.7 122.73 74.3 123.28 79.02 124.49 83.74 125.76 86.26 127.45 87.94 132.17 88.13 136.89 88.46 137.5 90.01 141.61 91.62 146.33 91.65 151.06 91.35 155.78 91.26 160.5 91.26 165.22 90.59 169.94 89.58 174.66 88.61 179.38 88.46 180.26 87.18 184.1 83.74 187.17 80.13 188.82 79.02 189.3 74.3 191.62 69.84 193.54 69.58 193.65 64.85 196.28 61.11 198.26 60.13 198.71"/>
      <polyline class="cls-2" points="282.01 206.68 277.29 204.06 275.81 202.98 272.57 200.1 269.73 198.26 267.85 197.05 263.12 193.93 262.54 193.54 258.4 190.26 256.73 188.82 253.68 186.15 251.48 184.1 248.96 181.65 246.79 179.38 244.24 176.75 241.87 174.66 239.52 171.85 238.02 169.94 234.8 166.15 233.92 165.22 230.08 161.47 229.04 160.5 225.36 157.16 223.72 155.78 220.64 153.21 217.87 151.06 215.92 149.49 211.77 146.33 211.2 145.89 206.48 142.44 205.31 141.61 201.75 139.18 198.18 136.89 197.03 136.15 192.31 133.16 190.45 132.17 187.59 130.67 182.87 128.26 181.25 127.45 178.15 125.89 173.43 123.92 170.74 122.73 168.71 121.81 163.99 119.97 159.27 118.28 158.57 118.01 154.55 116.52 149.83 114.89 145.11 113.33 144.99 113.29 140.39 111.79 135.67 110.67 130.94 109.87 126.24 108.57 126.22 108.57 121.5 107.1 116.78 106.05 112.06 104.81 108.82 103.85 107.34 103.41 102.62 101.65 97.9 99.67 96.66 99.13 93.18 97.57 88.46 96.07 85.03 94.41 83.74 93.61 79.02 91.1 74.87 89.69 74.3 89.5 69.58 87.11 65.62 84.96 64.85 84.61 60.13 82.29"/>
      <polyline class="cls-2" points="60.13 245.12 61.98 240.75 64.85 239.02 69.58 237.68 73.09 236.03 74.3 235.18 79.02 232.15 80.55 231.31 83.74 229.3 88.25 226.59 88.46 226.46 93.18 223.08 94.67 221.87 97.9 218.84 99.85 217.15 102.62 215.53 107.34 216.12 111.54 217.15 112.06 217.27 116.78 217.4 121.5 219.89 125.31 221.87 126.22 222.36 130.95 225.21 133.61 226.59 135.67 227.67 140.39 230.5 141.27 231.31 145.11 234.23 147.29 236.03 149.83 238.68 151.95 240.75 154.55 243.21 156.61 245.47 157.81 250.19 155.67 254.91 154.55 258.5 154.21 259.63 153.69 264.35 153.73 269.07"/>
      <polyline class="cls-2" points="282.01 255.65 277.29 257.2 272.57 257.77 267.85 259.18 266.96 259.63 263.12 261.3 258.4 263.27 255.58 264.35 253.68 265.1 248.96 267.11 244.69 269.07"/>
      <polyline class="cls-2" points="189.31 269.07 188.12 264.35 187.59 261 187.38 259.63 186.63 254.91 185.65 250.19 185.62 245.47 187.59 242.38 189.04 240.75 192.31 237.86 194.66 236.03 197.03 233.52 199.33 231.31 201.76 229.65 206.48 226.9 206.97 226.59 211.2 223.9 215.57 221.87 215.92 221.72 220.64 219.76 225.36 218.19 230.08 217.4 232.56 217.15 234.8 216.9 239.52 216.5 243.31 217.15 244.24 217.4 248.71 221.87 248.96 222.06 253.68 226.47 253.83 226.59 258.28 231.31 258.4 231.41 263.12 233.08 267.85 234.68 270.47 236.03 272.57 237.04 277.29 239.56 282.01 238.72"/>
      <polyline class="cls-2" points="99.06 269.07 97.9 268.45 93.18 266.21 89.23 264.35 88.46 264.02 83.74 262.14 79.02 260.14 76.44 259.63 74.3 259.2 69.58 258.09 64.86 256.09 61.73 254.91 60.13 253.81"/>
      <polyline class="cls-2" points="60.13 112.11 60.5 113.29 64.71 118.01 64.85 118.06 69.58 119.68 74.3 120.97 79.02 122.21 80.72 122.73 83.74 123.55 88.46 126.53 89.16 127.45 90.25 132.17 90.96 136.89 92.37 141.61 93.18 144.3 93.73 146.33 93.74 151.06 93.54 155.78 93.23 160.5 93.18 162.35 93.13 165.22 92.59 169.94 91.44 174.66 90.53 179.38 89.73 184.1 88.46 187.46 86.83 188.82 83.74 190.52 79.02 192.42 76.1 193.54 74.3 194.03 69.58 196.02 65.59 198.26 64.85 198.63 60.13 200.78"/>
      <polyline class="cls-2" points="282.01 209.25 279.61 207.7 277.29 206.32 272.7 202.98 272.57 202.86 267.85 199.92 265.53 198.26 263.12 196.67 258.4 193.55 258.4 193.54 253.68 189.5 252.94 188.82 248.96 185.12 247.88 184.1 244.24 180.3 243.24 179.38 239.52 176.1 237.98 174.66 234.8 170.62 234.21 169.94 230.08 165.57 229.73 165.22 225.36 161.12 224.58 160.5 220.64 157.22 218.88 155.78 215.92 153.51 212.67 151.06 211.2 149.94 206.48 146.4 206.39 146.33 201.75 143.07 199.6 141.61 197.03 139.95 192.31 137.09 191.99 136.89 187.59 134.48 183.15 132.17 182.87 132.03 178.15 129.61 173.51 127.45 173.43 127.42 168.71 125.37 163.99 123.35 162.41 122.73 159.27 121.57 154.55 119.75 150.1 118.01 149.83 117.91 145.11 116.42 140.39 114.95 135.67 113.75 133.64 113.29 130.94 112.72 126.22 111.53 121.5 109.59 117.68 108.57 116.78 108.37 112.06 107.2 107.34 105.89 102.62 104.21 101.74 103.85 97.9 102.29 93.18 100.17 91.33 99.13 88.46 97.92 83.74 95.66 81.13 94.41 79.02 93.26 74.3 91.39 70.83 89.69 69.58 89.05 64.85 86.49 61.36 84.97 60.13 84.39"/>
      <polyline class="cls-2" points="60.13 238.03 64.85 237.21 69.58 236.11 69.75 236.03 74.3 232.84 76.74 231.31 79.02 229.66 83.74 226.81 84.11 226.59 88.46 224.1 91.51 221.87 93.18 220.37 96.62 217.15 97.9 215.94 102.62 213.59 107.34 214.22 112.06 214.83 116.78 214.76 120.91 217.15 121.5 217.46 126.22 220.03 129.22 221.87 130.95 222.92 135.67 225.16 137.96 226.59 140.39 228 143.98 231.31 145.11 232.16 149.8 236.03 149.83 236.05 154.55 240.66 154.63 240.75 158.94 245.47 159.27 246.68 160.37 250.19 159.27 251.9 157.77 254.91 156.35 259.63 156.03 264.35 156.11 269.07"/>
      <polyline class="cls-2" points="282.01 257.7 277.29 258.89 273.3 259.63 272.57 259.81 267.85 261.32 263.12 263.48 261 264.35 258.4 265.41 253.68 267.31 249.69 269.07"/>
      <polyline class="cls-2" points="186.78 269.07 186.03 264.35 185.28 259.63 184.42 254.91 183.09 250.19 183.75 245.47 186.4 240.75 187.59 239.52 191.66 236.03 192.31 235.4 196.19 231.31 197.03 230.55 201.75 227.44 203.22 226.59 206.48 224.61 210.86 221.87 211.2 221.67 215.92 219.68 220.64 217.76 222.61 217.15 225.36 216.34 230.08 215.41 234.8 214.89 239.52 214.49 244.24 214.92 246.48 217.15 248.96 219.63 251.21 221.87 253.68 224.18 256.73 226.59 258.4 228.36 263.12 230.83 264.2 231.31 267.85 232.7 272.57 235.05 273.92 236.03 277.29 237.9 280.85 236.03 282.01 234.45"/>
      <polyline class="cls-2" points="94.55 269.07 93.18 268.43 88.46 266.42 84.12 264.35 83.74 264.2 79.02 262.25 74.3 261.61 69.58 260.62 67.86 259.63 64.85 258.29 60.13 256.51"/>
      <polyline class="cls-2" points="60.13 103.3 60.29 103.85 61.64 108.57 63.21 113.29 64.85 115.1 69.58 117.14 71.53 118.01 74.3 118.69 79.02 119.74 83.74 120.59 86.67 122.73 88.46 123.78 91.28 127.45 92.39 132.17 93.18 135.24 93.69 136.89 94.86 141.61 95.85 146.33 95.93 151.05 96.34 155.78 95.91 160.5 95.35 165.22 94.66 169.94 93.33 174.66 93.18 175.31 92.44 179.38 91.66 184.1 90.25 188.82 88.46 191.83 84.73 193.54 83.74 193.89 79.02 195.27 74.3 196.22 69.81 198.26 69.58 198.37 64.85 200.69 60.13 202.85"/>
      <polyline class="cls-2" points="282.01 211.71 277.29 208.59 275.8 207.7 272.57 205.49 268 202.98 267.85 202.89 263.12 199.59 261.39 198.26 258.4 196.29 254.62 193.54 253.68 192.73 249.37 188.82 248.96 188.45 244.35 184.1 244.24 183.99 239.52 179.6 239.23 179.38 234.8 175.28 234.2 174.66 230.08 169.94 230.08 169.94 225.36 165.24 225.34 165.22 220.64 161.61 219.18 160.5 215.92 157.88 213.36 155.78 211.2 154.17 207.31 151.06 206.48 150.43 201.75 147.1 200.66 146.33 197.03 143.95 193.07 141.61 192.31 141.17 187.59 138.42 185.04 136.89 182.87 135.76 178.15 133.43 175.86 132.17 173.43 131.03 168.71 129.03 165.4 127.45 163.99 126.84 159.27 124.99 154.55 123.09 153.63 122.73 149.83 121.37 145.11 119.69 140.39 118.04 140.27 118.01 135.67 116.84 130.94 115.62 126.22 114.48 123.71 113.29 121.5 112.32 116.78 110.93 112.06 109.63 108.06 108.57 107.34 108.38 102.62 106.89 97.9 104.94 95.75 103.85 93.18 102.65 88.46 99.95 87.04 99.13 83.74 97.57 79.02 95.54 76.97 94.41 74.3 93.26 69.58 90.99 67.18 89.69 64.85 88.43 60.13 86.77"/>
      <polyline class="cls-2" points="60.13 231.45 64.85 235.09 69.58 233.63 73 231.31 74.3 230.31 79.02 226.96 79.63 226.59 83.74 224.33 88.21 221.87 88.46 221.68 93.18 217.47 93.52 217.15 97.9 213.03 99.5 212.42 102.62 211.56 107.34 212.26 112.06 212.32 116.78 212.13 117.39 212.42 121.5 214.7 125.13 217.15 126.22 217.74 130.95 220.32 134.24 221.87 135.67 222.49 140.39 224.95 142.35 226.59 145.11 229 147.28 231.31 149.83 233.24 152.41 236.03 154.55 238.11 157.05 240.75 159.27 243.19 161.25 245.47 163.08 250.19 160 254.91 159.27 257.06 158.53 259.63 158.43 264.35 158.51 269.07"/>
      <polyline class="cls-2" points="282.01 259.75 277.29 260.78 272.57 262.05 267.85 263.37 265.75 264.35 263.12 265.65 258.4 267.57 254.74 269.07"/>
      <polyline class="cls-2" points="184.34 269.07 183.93 264.35 183.18 259.63 182.87 258.08 182.05 254.91 180.83 250.19 181.72 245.47 182.87 242.49 183.71 240.75 187.59 236.75 188.43 236.03 192.31 232.3 193.25 231.31 197.03 227.91 199.16 226.59 201.75 224.97 206.48 222.31 207.18 221.87 211.2 219.6 215.92 217.65 217.17 217.15 220.64 215.75 225.36 214.46 230.08 213.41 234.8 212.89 239.52 212.49 244.24 212.51 248.9 217.15 248.96 217.2 253.65 221.87 253.68 221.89 258.4 225.37 260 226.59 263.12 228.51 267.85 230.68 269.18 231.31 272.57 232.9 276.9 236.03 277.29 236.24 277.7 236.03 281.17 231.31 282.01 230.18"/>
      <polyline class="cls-2" points="88.9 269.07 88.46 268.89 83.74 266.88 79.02 264.37 78.78 264.35 74.3 264.08 69.58 263.44 64.86 260.62 62.59 259.63 60.13 258.7"/>
      <polyline class="cls-2" points="60.13 91.98 60.73 94.41 61.96 99.13 63.14 103.85 64.19 108.57 64.85 110.47 69.58 113.01 70.17 113.29 74.3 115.01 79.02 116.73 83.74 116.09 86.37 118.01 88.46 119.13 91.06 122.73 93.18 126.66 93.53 127.45 95 132.17 96.27 136.89 97.41 141.61 97.9 145.72 97.98 146.33 98.18 151.06 99.13 155.78 98.67 160.5 97.9 163.53 97.58 165.22 96.77 169.94 95.88 174.66 95.01 179.38 93.79 184.1 93.18 186.55 92.7 188.82 90.02 193.54 88.46 195.52 83.74 197.02 79.02 197.98 76.2 198.26 74.3 198.46 69.58 200.65 64.85 202.76 64.37 202.98 60.13 205.09"/>
      <polyline class="cls-2" points="282.01 214.01 279.63 212.42 277.29 210.85 272.57 208.13 271.7 207.7 267.85 205.72 263.47 202.98 263.12 202.75 258.4 199.11 257.32 198.26 253.68 195.64 250.93 193.54 248.96 191.76 245.84 188.82 244.24 187.32 240.82 184.1 239.52 182.89 234.91 179.38 234.8 179.27 230.32 174.66 230.08 174.38 225.36 169.94 225.35 169.94 220.64 166.32 219.33 165.22 215.92 162.65 213.3 160.5 211.2 158.77 207.39 155.78 206.48 155.06 201.75 151.64 200.98 151.06 197.03 148.55 193.5 146.33 192.31 145.68 187.59 142.99 185.12 141.61 182.87 140.47 178.15 137.85 176.28 136.89 173.43 135.54 168.71 133.11 166.67 132.17 163.99 131.13 159.27 128.91 156.2 127.45 154.55 126.86 149.83 125.11 145.11 123.28 143.91 122.73 140.39 121.5 135.67 120.04 130.94 118.66 128.73 118.01 126.22 117.41 121.5 115.34 116.78 113.65 116.03 113.29 112.06 112.13 107.34 111.21 102.62 109.75 100.14 108.57 97.9 107.66 93.18 106.02 91.1 103.85 88.46 102.3 83.74 99.85 82.42 99.13 79.02 97.98 74.3 95.47 72.7 94.41 69.58 92.93 64.85 90.71 61.7 89.69 60.13 89.25"/>
      <polyline class="cls-2" points="60.13 228.4 63.53 231.31 64.85 232.35 68.75 231.31 69.58 231.07 74.3 227.42 75.48 226.59 79.02 224.44 83.69 221.87 83.74 221.83 88.46 218.33 89.8 217.15 93.18 214 94.87 212.42 97.9 210.31 102.62 209.4 107.34 209.14 112.06 209.19 116.78 209.63 121.5 211.92 122.38 212.42 126.22 214.94 130.33 217.15 130.95 217.46 135.67 219.65 140.39 221.35 141.29 221.87 145.11 224.98 146.86 226.59 149.83 229.79 151.25 231.31 154.55 235.08 155.37 236.03 159.27 240.34 159.58 240.75 163.55 245.47 163.99 246.53 165.84 250.19 163.99 252.78 162.58 254.91 161.42 259.63 160.85 264.35 161.06 269.07"/>
      <polyline class="cls-2" points="282.01 261.61 277.29 262.85 272.57 264.29 272.32 264.35 267.85 265.92 263.12 267.82 260.01 269.07"/>
      <polyline class="cls-2" points="181.63 269.07 181.58 264.35 180.26 259.63 179.32 254.91 178.59 250.19 179.53 245.47 180.9 240.75 182.87 237.81 184.58 236.03 187.59 232.52 188.88 231.31 192.31 229.19 195.27 226.59 197.03 225.1 201.75 222.33 202.6 221.87 206.48 219.65 211.2 217.53 212.14 217.15 215.92 215.18 220.64 213.74 225.36 212.59 226.05 212.42 230.08 210.84 234.8 210.34 239.52 209.83 244.24 208.26 248.96 212.17 249.24 212.42 253.68 216.61 254.27 217.15 257.54 221.87 258.4 222.5 263.12 226.06 263.86 226.59 267.85 228.56 272.57 230.76 275.15 231.31 277.29 232.24 277.97 231.31 281.43 226.59 282.01 225.91"/>
      <polyline class="cls-2" points="82.45 269.07 79.02 267.44 74.3 266.7 69.58 266.26 66.81 264.35 64.85 263.14 60.13 260.9"/>
      <polyline class="cls-2" points="282.01 216.25 277.29 213.74 275.67 212.42 272.57 210.85 267.85 208.76 266.2 207.7 263.12 205.92 259.45 202.98 258.4 202.17 253.68 198.68 253.12 198.26 248.96 195.88 246.23 193.54 244.24 191.74 241.15 188.82 239.52 187.34 236.21 184.1 234.8 183.08 230.6 179.38 230.08 178.84 225.36 175.05 224.9 174.66 220.64 171.58 218.79 169.94 215.92 167.47 212.62 165.22 211.2 164.09 206.48 161.26 205.35 160.5 201.75 157.98 199.29 155.78 197.03 154.05 192.31 151.23 192.01 151.06 187.59 148.61 183.66 146.33 182.87 145.89 178.15 143.14 175.14 141.61 173.43 140.74 168.71 138.37 165.77 136.89 163.99 136.04 159.27 133.89 156.04 132.17 154.55 131.42 149.83 129.71 145.11 128.02 143.85 127.45 140.39 126.24 135.67 123.88 133.04 122.73 130.94 122.23 126.22 121.02 121.5 118.94 118.27 118.01 116.78 117.71 112.06 116.15 107.34 114.72 104.06 113.29 102.62 112.91 99.34 113.29 97.9 113.92 95.2 118.01 95.17 122.73 96.95 127.45 97.9 132.17 97.9 132.17 99.52 136.89 100.28 141.61 100.85 146.33 101.01 151.06 101.93 155.78 101.68 160.5 100.7 165.22 100.05 169.94 98.88 174.66 98.01 179.38 97.9 179.66 96.68 184.1 95.3 188.82 93.18 192.7 92.71 193.54 89.46 198.26 88.46 199.22 83.74 200.01 79.02 200.64 74.3 201.37 69.58 202.93 69.45 202.98 64.85 205.86 60.13 207.35"/>
      <polyline class="cls-2" points="60.13 225.43 61.36 226.59 64.85 229.61 69.58 228.15 71.6 226.59 74.3 224.71 79.02 221.96 79.18 221.87 83.74 218.04 85 217.15 88.46 214.23 90.44 212.42 93.18 208.83 97.41 207.7 97.9 207.51 102.62 206.67 107.34 206.03 112.06 205.59 116.78 207.05 118.11 207.7 121.5 209.26 126.22 211.87 128.16 212.42 130.95 213.37 135.67 216.55 136.72 217.15 140.39 218.5 145.11 220.95 146.24 221.87 149.83 225.15 151.36 226.59 154.55 229.99 155.82 231.31 159.27 235.29 159.89 236.03 163.3 240.75 163.99 241.63 167.04 245.47 168.63 250.19 168.71 250.39 169.18 250.19 173.43 246.09 173.91 245.47 177.88 240.75 178.15 240.45 180.4 236.03 182.87 231.34 182.9 231.31 187.59 227.84 190.56 226.59 192.31 225.82 197.03 222.12 197.48 221.87 201.76 219.09 205.87 217.15 206.48 216.77 211.2 214.09 215.92 212.55 216.51 212.42 220.64 210.76 225.36 209.08 230.08 207.73 231.48 207.7 234.8 207.6 239.52 206.14 244.24 203.44 248.96 206.48 250.57 207.7 253.68 210.6 256.26 212.42 258.4 214.32 259.81 217.15 261.63 221.87 263.12 222.98 267.85 226.33 268.16 226.59 272.57 228.62 277.29 227.28 277.78 226.59 281.76 221.87 282.01 221.32"/>
      <polyline class="cls-2" points="282.01 263.48 279.01 264.35 277.29 265.4 272.57 267.51 267.85 268.92 267.34 269.07"/>
      <polyline class="cls-2" points="178.48 269.07 178.96 264.35 178.15 262.01 173.43 261.84 168.71 261.49 163.99 261.65 163.29 264.35 163.69 269.07"/>
      <polyline class="cls-2" points="69.56 269.07 64.85 265.82 62.61 264.35 60.13 263.09"/>
      <polygon class="cls-2" points="64.85 93.61 63.97 94.41 64.85 98.24 65.1 99.13 66.31 103.85 69.57 108.15 70.42 108.57 74.3 110.49 79.02 112.44 83.74 109.21 84.44 108.57 83.74 103.89 83.73 103.85 79.02 101.59 76.14 99.13 74.3 98.2 69.57 95.22 67.39 94.41 64.85 93.61"/>
      <polyline class="cls-2" points="60.13 222.46 64.53 226.59 64.85 226.87 65.72 226.59 69.58 224.85 74.3 222.08 74.67 221.87 79.02 217.8 79.81 217.15 83.74 213.42 84.94 212.42 86.58 207.7 84.17 202.98 83.74 202.91 82.9 202.98 79.02 204.35 74.3 205.62 69.6 207.7 69.58 207.71 64.85 209.74 60.13 211.64"/>
      <polyline class="cls-2" points="174.91 269.07 173.43 267.11 170.16 269.07"/>
      <polyline class="cls-2" points="65.48 269.07 64.85 268.64 63.61 267.83"/>
      <polygon class="cls-2" points="69.58 98.67 69.05 99.13 69.58 101.84 70.36 99.13 69.58 98.67"/>
      <polygon class="cls-2" points="74.3 102.27 70.65 103.85 74.3 105.54 76.15 103.85 74.3 102.27"/>
      <polygon class="cls-2" points="112.06 122.1 107.34 121.79 102.62 121.88 101.63 122.73 102.3 127.45 102.62 128.05 104.84 132.17 104.91 136.89 104.54 141.61 105.2 146.34 104.98 151.06 105.64 155.78 105.53 160.5 104.98 165.22 104.88 169.94 103.77 174.66 102.62 177.48 102.02 179.38 100.67 184.1 98.02 188.82 97.9 189.35 97.35 193.54 96.28 198.26 97.9 199.3 102.62 201.34 107.34 202.83 112.06 201.68 114.16 202.98 116.78 204.22 121.5 205.81 124.89 207.7 126.22 208.28 130.94 209.51 135.67 212.11 136.23 212.42 140.39 214.43 144.97 217.15 145.11 217.2 149.83 220.67 151.18 221.87 154.55 224.96 156.26 226.59 159.27 229.73 160.87 231.31 163.99 235.26 165.25 236.03 168.71 239.09 173.43 237.15 174.44 236.03 177.9 231.31 178.15 231.08 182.45 226.59 182.87 226.21 187.59 223.18 190.48 221.87 192.31 220.39 197.03 217.48 197.7 217.15 201.75 214.58 206.36 212.42 206.48 212.34 211.2 209.89 215.92 208 216.61 207.7 220.64 205.94 225.36 204.96 230.08 203.89 234.71 202.98 234.8 202.89 239.52 198.6 244.24 198.54 244.7 198.26 244.24 197.89 239.76 193.54 239.52 193.32 234.8 192.94 232.16 188.82 230.08 186.96 225.91 184.1 225.36 183.65 221.38 179.38 220.64 178.83 216.35 174.66 215.92 174.31 211.2 171.36 209.62 169.94 206.48 168.06 202.52 165.22 201.75 164.72 197.03 160.81 196.52 160.5 192.31 158.02 189.1 155.78 187.59 155.03 182.87 152 181.17 151.06 178.15 149.73 173.43 147.38 171.45 146.34 168.71 145.19 163.99 142.39 162.63 141.61 159.27 140.22 154.55 137.8 151.9 136.89 149.83 136.31 145.11 134.89 140.39 132.64 139.39 132.17 135.67 130.44 130.94 128.56 128.01 127.45 126.22 126.72 121.5 124.97 116.78 123.89 113.72 122.73 112.06 122.1"/>
      <polygon class="cls-2" points="258.4 207.54 258.18 207.7 258.4 207.86 258.67 207.7 258.4 207.54"/>
      <polygon class="cls-2" points="267.85 212.27 263.13 210.91 262.1 212.42 263.13 215.55 265.7 217.15 266.78 221.87 267.85 222.57 272.57 224.79 275.34 221.87 272.57 219.45 270.39 217.15 268.29 212.42 267.85 212.27"/>
      <polygon class="cls-2" points="121.5 136.82 116.78 136.6 116.45 136.89 115.3 141.61 115.38 146.33 114.77 151.06 114.22 155.78 114.07 160.5 113 165.22 112.99 169.94 112.27 174.66 112.06 176.1 111.62 179.38 110.55 184.1 109.74 188.82 108.34 193.54 112.06 195.92 116.78 197.13 121.5 197.53 123.16 198.26 126.22 199.24 130.94 200.98 134.11 202.98 135.67 204.02 140.39 206.12 143.03 207.7 145.11 208.87 149.45 212.42 149.83 212.74 154.55 216.48 155.36 217.15 159.27 219.44 162.56 221.87 163.99 222.88 168.71 226.08 173.43 224.79 177.06 221.87 178.15 220.96 182.87 217.37 183.04 217.15 187.59 214.28 190.44 212.42 192.31 210.71 197.03 208.14 197.54 207.7 200.5 202.98 201.76 201.79 206.48 200.71 211.2 199.13 213.17 198.26 215.92 196.98 218.87 193.54 215.92 189.12 215.63 188.82 211.72 184.1 211.2 183.58 206.59 179.38 206.48 179.28 201.76 177.31 197.03 174.77 196.85 174.66 192.31 171.36 190.81 169.94 187.59 167.4 184.48 165.22 182.87 164.49 178.15 162.04 174.13 160.5 173.43 160.2 168.71 156.68 167.69 155.78 163.99 154.31 159.29 151.06 159.27 151.04 154.55 149.04 149.83 146.96 148.74 146.33 145.11 144.3 140.39 142.19 139.08 141.61 135.67 140.46 130.94 138.67 126.22 137.01 123.46 136.89 121.5 136.82"/>
      <polygon class="cls-2" points="64.85 218.07 64.53 221.87 64.85 222.16 65.94 221.87 64.85 218.07"/>
      <rect class="cls-3" x="54.66" y="42.48" width="232.82" height="231.32"/>
    </g>
    <g>
      <path class="cls-4" d="M93.21,157.83h-14.66c-2,0-3,1-3,3v8.87c0,2,1,3,3,3h14.66c2,0,3-1,3-3v-8.87c0-2-1-3-3-3"/>
      <rect class="cls-3" x="24.62" y="9.43" width="300.41" height="300.41"/>
    </g>
    <text class="cls-7" transform="translate(78.76 168.35)"><tspan x="0" y="0"></tspan></text>
    <text class="cls-6" transform="translate(87.48 169.85)"><tspan x="0" y="0">A</tspan></text>
    <g>
      <path class="cls-4" d="M117.15,250.29h-14.31c-2,0-3,1-3,3v8.87c0,2,1,3,3,3h14.31c2,0,3-1,3-3v-8.87c0-2-1-3-3-3"/>
      <rect class="cls-3" x="24.62" y="9.43" width="300.41" height="300.41"/>
    </g>
    <g>
      <text class="cls-7" transform="translate(102.09 260.45)"><tspan x="0" y="0"></tspan></text>
      <text class="cls-6" transform="translate(110.82 261.94)"><tspan x="0" y="0">B</tspan></text>
    </g>
    <g>
      <path class="cls-4" d="M249.09,236.41h-14.4c-2,0-3,1-3,3v8.87c0,2,1,3,3,3h14.4c2,0,3-1,3-3v-8.87c0-2-1-3-3-3"/>
      <rect class="cls-3" x="24.62" y="9.43" width="300.41" height="300.41"/>
    </g>
    <text class="cls-7" transform="translate(234.38 246.07)"><tspan x="0" y="0"></tspan></text>
    <text class="cls-6" transform="translate(243.11 247.57)"><tspan x="0" y="0">C</tspan></text>
    <g>
      <path class="cls-4" d="M268.3,163.68h-27.83c-2,0-3,1-3,3v9.96c0,2,1,3,3,3h27.83c2,0,3-1,3-3v-9.96c0-2-1-3-3-3"/>
      <rect class="cls-3" x="24.62" y="9.43" width="300.41" height="300.41"/>
    </g>
    <text class="cls-7" transform="translate(241.03 174.08)"><tspan x="0" y="0"></tspan></text>
    <text class="cls-7" transform="translate(246.92 174.08)"><tspan x="0" y="0">(</tspan></text>
    <text class="cls-7" transform="translate(250.45 174.08)"><tspan x="0" y="0"></tspan></text>
    <text class="cls-6" transform="translate(259.19 175.57)"><tspan x="0" y="0">A</tspan></text>
    <text class="cls-7" transform="translate(265.33 174.08)"><tspan x="0" y="0">)</tspan></text>
    <g>
      <path class="cls-4" d="M239.04,78.16h-27.49c-2,0-3,1-3,3v9.96c0,2,1,3,3,3h27.49c2,0,3-1,3-3v-9.96c0-2-1-3-3-3"/>
      <rect class="cls-3" x="24.62" y="9.43" width="300.41" height="300.41"/>
    </g>
    <text class="cls-7" transform="translate(211.88 88.5)"><tspan x="0" y="0"></tspan></text>
    <text class="cls-7" transform="translate(217.77 88.5)"><tspan x="0" y="0">(</tspan></text>
    <text class="cls-7" transform="translate(221.3 88.5)"><tspan x="0" y="0"></tspan></text>
    <text class="cls-6" transform="translate(230.04 90)"><tspan x="0" y="0">B</tspan></text>
    <text class="cls-7" transform="translate(235.83 88.5)"><tspan x="0" y="0">)</tspan></text>
    <g>
      <path class="cls-4" d="M111.9,50.4h-27.58c-2,0-3,1-3,3v9.96c0,2,1,3,3,3h27.58c2,0,3-1,3-3v-9.96c0-2-1-3-3-3"/>
      <rect class="cls-3" x="24.62" y="9.43" width="300.41" height="300.41"/>
    </g>
    <text class="cls-7" transform="translate(83.79 60.83)"><tspan x="0" y="0"></tspan></text>
    <text class="cls-7" transform="translate(89.68 60.83)"><tspan x="0" y="0">(</tspan></text>
    <text class="cls-7" transform="translate(93.21 60.83)"><tspan x="0" y="0"></tspan></text>
    <text class="cls-6" transform="translate(101.95 62.33)"><tspan x="0" y="0">C</tspan></text>
    <text class="cls-7" transform="translate(107.83 60.83)"><tspan x="0" y="0">)</tspan></text>
    <g>
      <path class="cls-5" d="M68.44,159.6l-2.92-2.92M68.44,156.68l-2.92,2.92"/>
      <path class="cls-1" d="M68.44,159.6l-2.92-2.92M68.44,156.68l-2.92,2.92"/>
      <path class="cls-5" d="M120.49,249.74l-2.92-2.92M120.49,246.82l-2.92,2.92"/>
      <path class="cls-1" d="M120.49,249.74l-2.92-2.92M120.49,246.82l-2.92,2.92"/>
      <path class="cls-5" d="M224.58,249.74l-2.92-2.92M224.58,246.82l-2.92,2.92"/>
      <path class="cls-1" d="M224.58,249.74l-2.92-2.92M224.58,246.82l-2.92,2.92"/>
      <path class="cls-5" d="M276.62,159.6l-2.92-2.92M276.62,156.68l-2.92,2.92"/>
      <path class="cls-1" d="M276.62,159.6l-2.92-2.92M276.62,156.68l-2.92,2.92"/>
      <path class="cls-5" d="M224.58,69.45l-2.92-2.92M224.58,66.53l-2.92,2.92"/>
      <path class="cls-1" d="M224.58,69.45l-2.92-2.92M224.58,66.53l-2.92,2.92"/>
      <path class="cls-5" d="M120.49,69.45l-2.92-2.92M120.49,66.53l-2.92,2.92"/>
      <path class="cls-1" d="M120.49,69.45l-2.92-2.92M120.49,66.53l-2.92,2.92"/>
      <rect class="cls-3" x="54.66" y="42.48" width="232.82" height="231.32"/>
    </g>
  </g>
  <text class="cls-10" transform="translate(101.23 38.35)"><tspan x="0" y="0">after mapping</tspan></text>
  <text class="cls-10" transform="translate(93.57 293.34)"><tspan class="cls-18" x="0" y="0">b</tspan><tspan x="13.98" y="0">efore mapping</tspan></text>
</svg>